<!-- Created with Inkscape (http://www.inkscape.org/) -->
<svg xmlns:rdf="http://www.w3.org/1999/02/22-rdf-syntax-ns#" xmlns="http://www.w3.org/2000/svg" height="48px" width="48px" version="1.1" xmlns:cc="http://creativecommons.org/ns#" xmlns:dc="http://purl.org/dc/elements/1.1/">
 <metadata>
  <rdf:RDF>
   <cc:Work rdf:about="">
    <dc:format>image/svg+xml</dc:format>
    <dc:type rdf:resource="http://purl.org/dc/dcmitype/StillImage"/>
    <dc:title/>
   </cc:Work>
  </rdf:RDF>
 </metadata>
 <path d="m24.022,1.9775q-4.5843,0-8.5843,1.7528t-6.9663,4.7191q-3.011,3.0116-4.7414,7.0116-1.7303,4-1.7303,8.539,0,4.5393,1.7303,8.5618t4.7416,6.9888q2.9663,3.0112,6.9663,4.7416,4,1.7303,8.5843,1.7303,4.5393,0,8.5393-1.7079t7.0112-4.7191q2.9663-2.9663,4.6966-6.9663,1.731-4.001,1.731-8.54,0-4.584-1.73-8.584-1.731-4-4.697-7.0116-3.011-3.0113-7.011-4.7641t-8.54-1.7528zm0,42.337q-4.1798,0-7.8876-1.5955-3.7079-1.5955-6.4494-4.3371-2.7416-2.7416-4.3371-6.427t-1.5955-7.8652,1.5955-7.8652,4.3371-6.4719q2.7416-2.7416,6.4494-4.3371,3.7079-1.5955,7.8876-1.5955,4.1798,0,7.8652,1.5955t6.427,4.3371q2.7416,2.7865,4.3371,6.4719t1.5955,7.8652-1.5955,7.8652-4.3371,6.427-6.427,4.3371-7.8652,1.5955zm6.652-31.37h-13.348q-0.89887,0-1.7079,0.35955-0.80899,0.35955-1.4382,0.94382-0.62922,0.62921-0.9663,1.4382-0.33707,0.80899-0.33707,1.7079v13.348q0,0.89887,0.33707,1.7303,0.33708,0.83147,0.9663,1.4157,0.62921,0.62922,1.4382,0.98877t1.7079,0.35955h13.348q0.89888,0,1.7079-0.35955,0.80898-0.35955,1.4382-0.98877,0.62921-0.58427,0.98876-1.4157,0.35955-0.83146,0.35955-1.7303v-13.349q0-0.94382-0.35955-1.7528-0.35955-0.809-0.98876-1.3933-0.62922-0.62921-1.4382-0.96629-0.80899-0.33708-1.7079-0.33708zm-13.348,1.7528h13.348q0.53933,0,1.0337,0.20225,0.49438,0.20224,0.85393,0.5618,0.4045,0.35956,0.62921,0.87641,0.22472,0.51685,0.22472,1.0562v2.2022h-5.4382q-0.35955-0.4045-0.83146-0.69663-0.47191-0.29214-1.0112-0.51686-0.49438-0.17977-1.0562-0.29213-0.56179-0.11236-1.1461-0.11236-0.58427,0-1.1461,0.11236-0.5618,0.11236-1.1011,0.33708-0.49439,0.17977-0.9663,0.49438t-0.83146,0.67416h-5.2584v-2.2022q0-0.53933,0.20225-1.0562,0.20225-0.51685,0.5618-0.87641t0.8764-0.5618q0.51686-0.20225,1.0562-0.20225zm6.6068,5.0337q0.85393,0,1.618,0.33708,0.76405,0.33708,1.3034,0.8764,0.58426,0.58427,0.89887,1.3258,0.31461,0.74158,0.31461,1.5955,0,0.85394-0.33708,1.618-0.33708,0.76404-0.8764,1.3034-0.58427,0.58427-1.3258,0.89887-0.742,0.314-1.596,0.314-0.85394,0-1.5955-0.33708-0.74157-0.33708-1.3258-0.8764-0.53933-0.58427-0.87641-1.3258-0.33708-0.74158-0.33708-1.5955-0.0449-0.85393,0.29214-1.618,0.33708-0.76404,0.8764-1.3034,0.58427-0.58427,1.3483-0.89888,0.76404-0.3146,1.618-0.3146zm6.7416,13.663h-13.349q-0.53932,0-1.0337-0.20225-0.49439-0.20224-0.85394-0.5618-0.40449-0.4045-0.60674-0.89888t-0.20225-1.0786v-9.3034h3.9551q-0.0899,0.26966-0.20225,0.58427-0.11236,0.3146-0.20224,0.62921l-0.0899,0.62921t-0.0449,0.67416q0,1.2135,0.47191,2.2921,0.47191,1.0787,1.2809,1.8427,0.76405,0.80899,1.8427,1.2809t2.2921,0.47191,2.2921-0.47191,1.8427-1.2809q0.80899-0.76404,1.2809-1.8427,0.47191-1.0786,0.47191-2.2921,0-0.35955-0.045-0.67416l-0.0899-0.62921q-0.0899-0.31461-0.20225-0.62921-0.11236-0.31461-0.20225-0.58427h4.1348v9.3034q0,0.58427-0.22472,1.0786-0.22471,0.49438-0.62921,0.89888-0.35955,0.35956-0.85393,0.5618-0.49438,0.20225-1.0337,0.20225zm-0.855-14.787h1.4831q0.26967,0,0.44944-0.17977,0.17978-0.17978,0.17978-0.44944v-1.4832q0-0.26966-0.17978-0.44944-0.17977-0.17977-0.44944-0.17977h-1.4831q-0.26967,0-0.44944,0.17977-0.17978,0.17978-0.17978,0.44944v1.4832q0.045,0.26966,0.20225,0.44944,0.1573,0.17977,0.42697,0.17977z"/>
</svg>
