<!-- Created with Inkscape (http://www.inkscape.org/) -->
<svg xmlns:rdf="http://www.w3.org/1999/02/22-rdf-syntax-ns#" xmlns="http://www.w3.org/2000/svg" height="48px" width="48px" version="1.1" xmlns:cc="http://creativecommons.org/ns#" xmlns:dc="http://purl.org/dc/elements/1.1/">
 <metadata>
  <rdf:RDF>
   <cc:Work rdf:about="">
    <dc:format>image/svg+xml</dc:format>
    <dc:type rdf:resource="http://purl.org/dc/dcmitype/StillImage"/>
    <dc:title/>
   </cc:Work>
  </rdf:RDF>
 </metadata>
 <path transform="matrix(1.0217391,0,0,1.0217391,-1.5434782,-2.5652159)" fill="#24ba66" d="M48,26a23,23,0,1,1,-46,0,23,23,0,1,1,46,0z" fill-rule="evenodd"/>
 <circle stroke-linejoin="round" stroke-width="2.3535" d="m 1228.1,301.89999 c 0,16.679 -13.521,30.2 -30.2,30.2 -16.679,0 -30.2,-13.521 -30.2,-30.2 0,-16.679 13.521,-30.2 30.2,-30.2 16.679,0 30.2,13.521 30.2,30.2 z" cy="301.9" stroke-linecap="round" transform="matrix(0.50993209,0,0,0.50993209,-586.84766,-129.9485)" stroke="#FFF" cx="1197.9" stroke-miterlimit="4" stroke-dasharray="none" r="30.2" fill="none"/>
 <text style="letter-spacing:0px;word-spacing:0px;" font-weight="normal" xml:space="preserve" font-size="40px" font-style="normal" y="32.400002" x="17.82" font-family="Sans" line-height="125%" fill="#ffffff"><tspan font-weight="normal" font-size="24px" font-style="normal" font-stretch="normal" font-variant="normal" y="32.400002" x="17.82" font-family="PT Sans" fill="#ffffff">#</tspan></text>
</svg>
