<!-- Created with Inkscape (http://www.inkscape.org/) -->
<svg xmlns:rdf="http://www.w3.org/1999/02/22-rdf-syntax-ns#" xmlns="http://www.w3.org/2000/svg" height="48px" width="48px" version="1.1" xmlns:cc="http://creativecommons.org/ns#" xmlns:dc="http://purl.org/dc/elements/1.1/">
 <metadata>
  <rdf:RDF>
   <cc:Work rdf:about="">
    <dc:format>image/svg+xml</dc:format>
    <dc:type rdf:resource="http://purl.org/dc/dcmitype/StillImage"/>
    <dc:title/>
   </cc:Work>
  </rdf:RDF>
 </metadata>
 <path d="M48,26a23,23,0,1,1,-46,0,23,23,0,1,1,46,0z" fill-rule="evenodd" transform="matrix(1.0217391,0,0,1.0217391,-1.5434782,-2.5652159)" fill="#24ba66"/>
 <path d="m24,8q-3.3,0-6.2167,1.2667-2.916,1.2663-5.083,3.4333t-3.4333,5.083q-1.2667,2.917-1.2667,6.217,0,3.333,1.2667,6.25,1.2663,2.917,3.4333,5.083,2.167,2.167,5.083,3.417,2.917,1.25,6.217,1.25t6.2167-1.25,5.0833-3.4167q2.167-2.166,3.433-5.083,1.267-2.917,1.267-6.25,0-3.3-1.2667-6.2167-1.266-2.916-3.433-5.083t-5.083-3.4333q-2.917-1.2667-6.217-1.2667zm0,1.3333q3.0333,0,5.7,1.15t4.6667,3.15,3.15,4.6667,1.15,5.7q0,3.0667-1.15,5.7333-1.15,2.6667-3.15,4.6667-2,1.9667-4.6667,3.1167t-5.7,1.15-5.7-1.15-4.6667-3.1167q-2-2-3.15-4.6667t-1.15-5.7333q0-3.0333,1.15-5.7t3.15-4.6667,4.6667-3.15,5.7-1.15zm0,6.6667q-0.96667,0-1.8167,0.36667-0.85,0.36667-1.4833,1.0333-0.63334,0.63334-1,1.4833-0.36667,0.85-0.36667,1.7833,0,0.3,0.2,0.48333,0.2,0.18334,0.46667,0.18334,0.26666,0,0.46666-0.18334,0.2-0.18333,0.2-0.48333,0-0.66667,0.26667-1.2833,0.26667-0.61667,0.7-1.05,0.46667-0.46667,1.0667-0.73334,0.6-0.26666,1.3-0.26666t1.3,0.26666q0.6,0.26667,1.0667,0.73334,0.43333,0.43333,0.7,1.05,0.26666,0.61666,0.26666,1.2833,0,0.7-0.26666,1.3-0.26667,0.6-0.7,1.0667-0.46667,0.43333-1.0667,0.7-0.6,0.26666-1.3,0.26666-0.26667,0-0.46667,0.20001-0.2,0.2-0.2,0.46666v4q0,0.3,0.2,0.48334,0.2,0.18333,0.46667,0.18333t0.46667-0.18333q0.2-0.18334,0.2-0.48334v-3.3337q0.832-0.13333,1.565-0.53333,0.73334-0.4,1.2667-1.0333,0.56667-0.6,0.86667-1.4t0.3-1.7q0-0.93333-0.36667-1.7833-0.36667-0.85-1-1.4833-0.63333-0.66666-1.4833-1.0333-0.85-0.36667-1.8167-0.36667zm0,14.667q-0.26667,0-0.51667,0.1t-0.41667,0.3q-0.2,0.16667-0.3,0.41667t-0.1,0.51667q0,0.3,0.1,0.55t0.3,0.41666q0.16667,0.16667,0.41667,0.26667t0.51667,0.1,0.51667-0.1,0.41666-0.26667q0.2-0.16666,0.3-0.41666t0.1-0.55q0-0.26667-0.1-0.51667t-0.3-0.41667q-0.16666-0.2-0.41666-0.3t-0.51667-0.1z" path-name="uniE621" unicode="" fill="#FFF"/>
</svg>
