<!-- Created with Inkscape (http://www.inkscape.org/) -->
<svg xmlns:rdf="http://www.w3.org/1999/02/22-rdf-syntax-ns#" style="enable-background:new;" xmlns="http://www.w3.org/2000/svg" height="20" width="20" version="1.1" xmlns:cc="http://creativecommons.org/ns#" xmlns:dc="http://purl.org/dc/elements/1.1/">
 <metadata>
  <rdf:RDF>
   <cc:Work rdf:about="">
    <dc:format>image/svg+xml</dc:format>
    <dc:type rdf:resource="http://purl.org/dc/dcmitype/StillImage"/>
    <dc:title/>
   </cc:Work>
  </rdf:RDF>
 </metadata>
 <path stroke-linejoin="round" d="m18.556,10.004c0.07269,3.8326-2.7847,7.4656-6.5185,8.3218-3.368,0.85-7.1715-0.573-9.1047-3.471-1.9863-2.854-2.0024-6.9249,0.0394-9.7552,1.9006-2.7496,5.4812-4.2075,8.7573-3.4867,3.3338,0.67032,6.1244,3.4787,6.6873,6.8446,0.09312,0.50999,0.13997,1.0284,0.1395,1.5469z" stroke="#000" stroke-linecap="round" stroke-miterlimit="10" stroke-dasharray="none" stroke-width="0.86000001" fill="none"/>
 <path stroke-linejoin="round" d="M5.5498,13.302h6.9162-6.9161zm0-1.644h8.9004-8.9003zm0-1.644h8.9004-8.9003zm0-1.6724h8.9004-8.9003zm1.644-1.6438h6.9162-6.9161z" stroke="#000" stroke-linecap="round" stroke-miterlimit="10" stroke-dasharray="none" stroke-width="0.86000001" fill="none"/>
</svg>
