<?xml version="1.0" encoding="utf-8"?>
<!-- Generated by IcoMoon.io -->
<!DOCTYPE svg PUBLIC "-//W3C//DTD SVG 1.1//EN" "http://www.w3.org/Graphics/SVG/1.1/DTD/svg11.dtd">
<svg version="1.1" xmlns="http://www.w3.org/2000/svg" xmlns:xlink="http://www.w3.org/1999/xlink" width="32" height="32" viewBox="0 0 32 32">
<path fill="#444" d="M9.965 3.168c-1.087 0-1.972 0.917-1.972 2.045v17.026h-4.268c-0.089 0-0.169 0.022-0.245 0.057-0.162 0.055-0.302 0.17-0.366 0.343-0.198 0.526-0.299 1.083-0.299 1.656 0 2.501 1.946 4.536 4.338 4.536h17.661c0.085 0 0.168-0.009 0.252-0.014 0.020 0.001 0.040 0.006 0.060 0.007 0.011 0 0.022 0.001 0.033 0.001 0.030 0 0.057-0.012 0.087-0.016 2.207-0.226 3.936-2.163 3.936-4.513v-19.083c0-1.128-0.884-2.045-1.972-2.045h-17.247zM9.966 4.347h17.246c0.438 0 0.794 0.389 0.794 0.867v19.082c0 1.749-1.278 3.19-2.903 3.343-1.762-0.152-2.555-1.781-2.555-3.355 0-0.213 0.024-0.442 0.073-0.702 0.068-0.363-0.016-0.697-0.237-0.942-0.376-0.416-0.993-0.413-1.174-0.4h-12.038v-17.026c0-0.478 0.356-0.867 0.794-0.867zM17.903 7.407c-0.737 0-1.438 0.239-2.102 0.717-0.716 0.508-1.075 1.121-1.075 1.837 0 0.415 0.229 0.622 0.685 0.622 0.239 0 0.436-0.16 0.591-0.482 0.219-0.488 0.38-0.789 0.483-0.904 0.29-0.322 0.732-0.482 1.323-0.482 0.561 0 1.002 0.135 1.324 0.404 0.364 0.291 0.545 0.706 0.545 1.246 0 0.716-0.223 1.22-0.669 1.51-0.104 0.063-0.508 0.203-1.214 0.421-0.447 0.135-0.669 0.373-0.669 0.716v2.117c0 0.187 0.067 0.353 0.2 0.498 0.133 0.146 0.292 0.218 0.477 0.218 0.195 0 0.361-0.069 0.5-0.209s0.208-0.309 0.208-0.506v-1.649c0.845-0.177 1.511-0.53 1.996-1.059s0.728-1.214 0.728-2.055c0-0.925-0.332-1.663-0.996-2.212-0.612-0.499-1.39-0.748-2.335-0.748zM17.84 17.338c-0.228 0-0.425 0.078-0.591 0.233s-0.249 0.349-0.249 0.578c0 0.217 0.085 0.407 0.257 0.567s0.365 0.241 0.584 0.241c0.207 0 0.394-0.084 0.56-0.249s0.25-0.352 0.25-0.56c0-0.229-0.078-0.422-0.234-0.578-0.155-0.155-0.346-0.233-0.575-0.233zM21.318 23.415c0.044 0 0.092 0.005 0.133 0.011-0.055 0.308-0.082 0.589-0.082 0.857 0 1.381 0.455 2.558 1.222 3.37h-15.438c-1.742 0-3.159-1.507-3.159-3.358 0-0.301 0.039-0.593 0.112-0.877l17.17-0.002c0.013-0.001 0.027-0.002 0.042-0.002z"></path>
</svg>
