<?xml version="1.0" encoding="utf-8"?>
<!-- Generated by IcoMoon.io -->
<!DOCTYPE svg PUBLIC "-//W3C//DTD SVG 1.1//EN" "http://www.w3.org/Graphics/SVG/1.1/DTD/svg11.dtd">
<svg version="1.1" xmlns="http://www.w3.org/2000/svg" xmlns:xlink="http://www.w3.org/1999/xlink" width="32" height="32" viewBox="0 0 32 32">
<path fill="#444" d="M9.898 5.909c-0.158 0.043-0.289 0.138-0.376 0.266l-9.287 9.273c-0.067 0.079-0.117 0.176-0.14 0.283-0.028-0.076-0.091 0.030-0.122 0.149 0.055-0.136 0.055-0.129 0.055-0.122s0 0.014 0 0.022c-0 0.005-0 0.012-0 0.020s0 0.014 0 0.022c-0 0.005-0 0.012-0 0.020s0 0.014 0 0.022c-0.018 0.057-0.029 0.123-0.029 0.192 0 0.183 0.074 0.348 0.194 0.468l9.333 9.333c0.122 0.157 0.311 0.256 0.523 0.256 0.365 0 0.661-0.296 0.661-0.661 0-0.202-0.090-0.382-0.233-0.503l-8.26-8.26h29.112c0.003 0 0.006 0 0.009 0 0.365 0 0.661-0.296 0.661-0.661s-0.296-0.661-0.661-0.661c-0.003 0-0.007 0-0.010 0h-29.153l8.341-8.341c0.123-0.12 0.2-0.288 0.2-0.473 0-0.365-0.296-0.661-0.661-0.661-0.056 0-0.111 0.007-0.163 0.020z"></path>
</svg>
