<?xml version="1.0" encoding="utf-8"?>
<!-- Generated by IcoMoon.io -->
<!DOCTYPE svg PUBLIC "-//W3C//DTD SVG 1.1//EN" "http://www.w3.org/Graphics/SVG/1.1/DTD/svg11.dtd">
<svg version="1.1" xmlns="http://www.w3.org/2000/svg" xmlns:xlink="http://www.w3.org/1999/xlink" width="32" height="32" viewBox="0 0 32 32">
<path fill="#444" d="M30.317 8.396c-0.041-0.098-0.118-0.176-0.216-0.216-0.049-0.020-0.101-0.031-0.153-0.031h-5.387v-2.277c1.010-0.188 1.777-1.075 1.777-2.138 0-1.2-0.977-2.177-2.177-2.177s-2.177 0.977-2.177 2.177c0 1.064 0.767 1.95 1.777 2.138v2.277h-15.439v-2.277c1.010-0.188 1.777-1.075 1.777-2.138 0-1.2-0.977-2.177-2.177-2.177s-2.177 0.977-2.177 2.177c0 1.064 0.767 1.95 1.777 2.138v2.277h-5.428c-0.221 0-0.4 0.179-0.4 0.4v8.381c-0.072 0.149-0.051 0.332 0.073 0.456 0.008 0.008 0.018 0.010 0.026 0.018 0.074 0.086 0.179 0.143 0.3 0.143h2.561v12.496c0 0.221 0.179 0.4 0.4 0.4s0.4-0.179 0.4-0.4v-12.496h21.244v12.496c0 0.221 0.179 0.4 0.4 0.4s0.4-0.179 0.4-0.4v-12.496h2.449c0.221 0 0.4-0.179 0.4-0.4v-8.597c0-0.052-0.010-0.103-0.031-0.152zM22.783 3.734c0-0.759 0.617-1.377 1.377-1.377s1.377 0.618 1.377 1.377c0 0.759-0.618 1.377-1.377 1.377s-1.377-0.617-1.377-1.377zM6.545 3.734c0-0.759 0.617-1.377 1.377-1.377s1.377 0.618 1.377 1.377c0 0.759-0.618 1.377-1.377 1.377s-1.377-0.617-1.377-1.377zM15.692 16.747l7.798-7.798h5.492l-7.798 7.798h-5.492zM9.369 16.747l7.798-7.798h5.192l-7.798 7.798h-5.192zM2.971 16.747l7.798-7.798h5.267l-7.798 7.798h-5.267zM9.638 8.949l-7.144 7.144v-7.144h7.144zM22.315 16.747l7.232-7.232v7.232h-7.232z"></path>
</svg>
