<?xml version="1.0" encoding="utf-8"?>
<!-- Generated by IcoMoon.io -->
<!DOCTYPE svg PUBLIC "-//W3C//DTD SVG 1.1//EN" "http://www.w3.org/Graphics/SVG/1.1/DTD/svg11.dtd">
<svg version="1.1" xmlns="http://www.w3.org/2000/svg" xmlns:xlink="http://www.w3.org/1999/xlink" width="32" height="32" viewBox="0 0 32 32">
<path fill="#444" d="M13.6 1c-0.987 0-1.8 0.813-1.8 1.8v1.2h-6c-0.331 0-0.6 0.269-0.6 0.6s0.269 0.6 0.6 0.6h0.656l2.156 24.3v0.019c0.076 0.839 0.79 1.481 1.632 1.481h11.512c0.842 0 1.557-0.66 1.632-1.5l2.156-24.3h0.656c0.331 0 0.6-0.269 0.6-0.6s-0.269-0.6-0.6-0.6h-6v-1.2c0-0.987-0.812-1.8-1.8-1.8h-4.801zM13.6 2.2h4.801c0.339 0 0.6 0.261 0.6 0.6v1.2h-6v-1.2c0-0.338 0.262-0.6 0.6-0.6zM7.656 5.2h16.688l-2.156 24.206c-0.019 0.208-0.241 0.394-0.432 0.394h-11.512c-0.19 0-0.413-0.185-0.432-0.394l-2.156-24.206zM12.397 6.985c-0.047 0-0.092 0.006-0.135 0.016-0.264 0.061-0.462 0.299-0.462 0.584 0 0.005 0 0.010 0 0.015v19.8c0 0.331 0.269 0.6 0.6 0.6s0.6-0.269 0.6-0.6v-19.801c0-0.004 0-0.009 0-0.014 0-0.331-0.269-0.6-0.6-0.6-0.001 0-0.002 0-0.003 0zM15.997 6.985c-0.047 0-0.092 0.006-0.135 0.016-0.263 0.061-0.462 0.299-0.462 0.584 0 0.005 0 0.010 0 0.015v19.8c-0 0.007-0 0.015-0 0.023 0 0.331 0.269 0.6 0.6 0.6s0.6-0.269 0.6-0.6c0-0.008-0-0.016-0-0.024l0-17.006v-2.794c0-0.004 0-0.009 0-0.014 0-0.331-0.269-0.6-0.6-0.6-0.001 0-0.002 0-0.003 0zM19.597 6.985c-0.047 0-0.092 0.006-0.135 0.016-0.263 0.061-0.462 0.299-0.462 0.584 0 0.005 0 0.010 0 0.015v19.8c0 0.331 0.269 0.6 0.6 0.6s0.6-0.269 0.6-0.6v-19.801c0-0.004 0-0.009 0-0.014 0-0.331-0.269-0.6-0.6-0.6-0.001 0-0.003 0-0.004 0z"></path>
</svg>
