<?xml version="1.0" encoding="utf-8"?>
<!-- Generated by IcoMoon.io -->
<!DOCTYPE svg PUBLIC "-//W3C//DTD SVG 1.1//EN" "http://www.w3.org/Graphics/SVG/1.1/DTD/svg11.dtd">
<svg version="1.1" xmlns="http://www.w3.org/2000/svg" xmlns:xlink="http://www.w3.org/1999/xlink" width="32" height="32" viewBox="0 0 32 32">
<path fill="#444" d="M11.426 3.501c-0.311 0.033-0.551 0.294-0.551 0.611 0 0.001 0 0.002 0 0.004v2.663h-6.762c-0.001 0-0.003-0-0.005-0-0.044 0-0.086 0.005-0.127 0.013-0.108 0.028-0.205 0.084-0.281 0.161-0.035 0.015-0.113 0.118-0.155 0.237 0.012-0.046-0.018 0.036-0.030 0.124 0.007-0.075-0.010-0.002-0.014 0.074 0.010-0.076 0.009-0.067 0.009-0.058s0 0.018 0.001 0.027c-0.002 0.015-0.002 0.034-0.002 0.053 0 0.049 0.006 0.097 0.017 0.142 0.017 0.073 0.047 0.141 0.087 0.201 0-0.016 0.064 0.046 0.138 0.092-0.099-0.046-0.033 0.023 0.047 0.075-0.020 0.009 0.141 0.088 0.321 0.089l2.66-0v19.876c0 0 0 0 0 0 0 0.34 0.275 0.615 0.615 0.615 0 0 0 0 0 0h17.212c0 0 0 0 0 0 0.34 0 0.615-0.275 0.615-0.615 0-0 0-0 0-0v-19.876h2.664c0.010 0.001 0.021 0.001 0.032 0.001s0.022-0 0.034-0.001c0.048-0.007 0.093-0.019 0.136-0.035-0.017 0.011 0.033-0.007 0.079-0.031-0.015 0.013 0.058-0.030 0.12-0.085-0.031 0.024 0.030-0.040 0.076-0.114-0.056 0.1 0.005 0.036 0.051-0.039-0.064 0.091-0.012 0.018 0.022-0.064-0.059 0.111-0.017 0.032 0.006-0.054-0.025 0.114 0.018 0.035 0.043-0.051-0.034 0.102 0.001 0.009 0.012-0.091-0.009 0.062-0.002 0.014-0.001-0.036-0.003 0.049-0 0.018-0-0.013 0-0.055-0.007-0.108-0.021-0.159-0.017-0.073-0.046-0.14-0.086-0.201-0.001 0.015-0.064-0.046-0.138-0.093 0.116 0.057 0.071-0.005 0.017-0.058 0.047 0.072-0.025 0.019-0.107-0.016 0.11 0.036 0.027-0.025-0.067-0.064 0.059 0.021-0.056-0.023-0.182-0.028 0.030 0.003 0.019 0.002 0.008 0.002s-0.022 0-0.034 0.001l-6.76-0v-2.664c0-0 0-0 0-0 0-0.34-0.275-0.615-0.615-0.615-0 0-0 0-0 0h-9.016c-0.010-0.001-0.021-0.001-0.032-0.001s-0.022 0-0.034 0.001zM12.104 4.73h7.787v2.049h-7.787v-2.049zM8.006 8.009h15.983v19.262h-15.983v-19.262zM11.461 11.294c-0.034 0.002-0.066 0.007-0.097 0.013-0.049 0.004-0.126 0.031-0.195 0.070-0.035 0.017-0.108 0.079-0.165 0.153 0.050-0.055-0.001 0.019-0.035 0.101 0.042-0.117-0.013-0.042-0.049 0.043 0.036-0.085-0.014 0.021-0.031 0.138-0.002-0.040-0.020 0.032-0.023 0.107 0.009-0.072 0.009-0.060 0.009-0.049s0 0.022 0.001 0.034l-0 11.473c0 0.001 0 0.002 0 0.003 0 0.063 0.009 0.123 0.027 0.18 0.023 0.067 0.058 0.129 0.102 0.183-0.044-0.050 0.001 0.012 0.055 0.065-0.057-0.063 0.007-0.002 0.081 0.044-0.099-0.056-0.036 0.005 0.038 0.052-0.081-0.060 0.005-0.005 0.1 0.026-0.081-0.017 0.015 0.028 0.12 0.046-0.064-0.012 0.007 0.002 0.082 0.003-0.009 0.001 0.013 0.002 0.036 0.002s0.045-0.001 0.067-0.004c0.121-0.017 0.231-0.070 0.319-0.146 0.039-0.033 0.101-0.116 0.14-0.21-0.034 0.080 0.008-0.007 0.027-0.102-0.009 0.082 0.022-0.001 0.034-0.089-0.012 0.077 0.003 0.005 0.004-0.069-0.001 0.026-0.001 0.024-0.001 0.022s0-0.004-0-0.007v-11.475c0-0.002 0-0.004 0-0.006 0-0.062-0.009-0.121-0.026-0.178-0.024-0.067-0.058-0.129-0.102-0.183 0.023 0.011-0.060-0.081-0.164-0.142 0.028 0.007-0.060-0.043-0.158-0.070 0.093 0.032 0.021 0.008-0.056-0.002 0.090 0.003 0.008-0.025-0.079-0.035 0.079 0.015 0.025 0.008-0.030 0.008-0.010 0-0.020 0-0.030 0.001zM20.483 11.297c-0.001 0-0.002 0-0.003 0-0.023 0-0.045 0.001-0.067 0.004-0.047 0.007-0.092 0.019-0.134 0.035-0.004-0.005-0.072 0.025-0.132 0.065-0.008 0.003-0.088 0.078-0.144 0.169 0.025-0.055-0.029 0.020-0.065 0.105 0.042-0.111-0.011-0.039-0.046 0.043 0.064-0.098 0.029-0.005 0.018 0.095-0.004-0.041-0.018 0.030-0.018 0.106l0 11.458c-0 0.002-0 0.004-0 0.006 0 0.062 0.009 0.122 0.026 0.178 0.028 0.081 0.072 0.154 0.128 0.216-0.025-0.018 0.047 0.053 0.131 0.104-0.063-0.036 0.022 0.018 0.117 0.050-0.081-0.018 0.015 0.027 0.12 0.045-0.066-0.007 0.004 0.013 0.077 0.020-0.098-0.019-0.052-0.013-0.003-0.012-0.042-0.001-0.008 0.002 0.026 0.002 0.095 0 0.185-0.022 0.265-0.060 0.084-0.042 0.157-0.104 0.213-0.178-0.050 0.055 0.001-0.019 0.035-0.101-0.032 0.113 0.031 0.031 0.070-0.063-0.063 0.092-0.044 0.023-0.037-0.050 0.016 0.067 0.047-0.016 0.059-0.105-0.008 0.080 0.012 0.010 0.019-0.063-0.022 0.102-0.017 0.059-0.017 0.015 0-0.002 0-0.003-0-0.005v-11.475c0-0.001 0-0.002 0-0.003 0-0.063-0.009-0.123-0.027-0.181-0.023-0.067-0.058-0.129-0.102-0.183 0.033 0.036-0.028-0.036-0.102-0.093 0.065 0.040 0.002-0.021-0.072-0.068 0.081 0.060-0.005 0.005-0.1-0.026 0.094 0.024 0.016-0.019-0.071-0.044 0.11 0.042 0.027 0.011-0.061-0 0.078 0.006 0.008-0.014-0.065-0.021 0.098 0.019 0.052 0.013 0.003 0.011 0.064 0.005 0.055 0.005 0.046 0.005s-0.018 0-0.027 0.001c-0.018-0.002-0.040-0.003-0.062-0.003zM15.911 11.3c-0.054 0.018-0.101 0.041-0.145 0.070 0.092-0.062 0.048-0.050 0.005-0.034 0.019-0.012-0.029 0.004-0.074 0.026 0.024-0.012-0.038 0.023-0.092 0.067 0.036-0.033-0.036 0.028-0.093 0.102 0.024-0.048-0.047 0.043-0.089 0.147 0.024-0.061-0.013 0.026-0.028 0.121 0.008-0.071-0.013 0.010-0.016 0.095 0.004-0.048 0.004-0.039 0.004-0.030s0 0.018 0.001 0.027c-0 0.001-0 0.003-0 0.005s0 0.005 0 0.007v11.474c0 0 0 0.001 0 0.001 0 0.045 0.005 0.089 0.014 0.131 0.010 0.050 0.026 0.098 0.048 0.143-0.012-0.024 0.023 0.038 0.067 0.092-0.024-0.011 0.060 0.081 0.162 0.143-0.021-0.003 0.077 0.049 0.185 0.072-0.068-0.008 0.005 0.017 0.084 0.028-0.103-0.018-0.033 0.002 0.040 0.009-0.091-0.016-0.036-0.009 0.021-0.009 0.096 0 0.186-0.022 0.267-0.061 0.084-0.042 0.157-0.104 0.213-0.178-0.050 0.055 0.001-0.019 0.035-0.101-0.014 0.088 0.054-0.032 0.078-0.166 0.006 0.028 0.026-0.041 0.033-0.115-0.021 0.101-0.016 0.057-0.016 0.012 0-0 0-0.001 0-0.001v-11.475c-0.003-0.133-0.048-0.255-0.121-0.354-0.044-0.066-0.108-0.128-0.181-0.174 0.089 0.065 0.016 0.013-0.066-0.021 0.105 0.047 0.017-0.003-0.081-0.030 0.067 0.012-0.038-0.021-0.151-0.024 0.015 0.001 0.004 0-0.007 0s-0.022 0-0.034 0.001c-0.010-0.001-0.024-0.001-0.037-0.001-0.008 0-0.016 0-0.024 0z"></path>
</svg>
