<?xml version="1.0" encoding="utf-8"?>
<!-- Generated by IcoMoon.io -->
<!DOCTYPE svg PUBLIC "-//W3C//DTD SVG 1.1//EN" "http://www.w3.org/Graphics/SVG/1.1/DTD/svg11.dtd">
<svg version="1.1" xmlns="http://www.w3.org/2000/svg" xmlns:xlink="http://www.w3.org/1999/xlink" width="31" height="32" viewBox="0 0 31 32">
<path fill="#444" d="M26.75 22.543c-0.974-0.488-1.619-1.053-1.695-1.483v-6.364c0-4.222-2.77-7.894-6.788-9.076v-1.604c0-1.137-0.925-2.062-2.062-2.062h-1.244c-1.137 0-2.062 0.925-2.062 2.062v1.605c-4.019 1.182-6.788 4.854-6.788 9.076l0.001 5.845c-0.004 0.063-0.004 0.127-0.002 0.191l0.001 0.059c0 0.496-0.682 1.165-1.781 1.745-0.525 0.277-0.905 0.884-0.905 1.444v1.060c0 0.862 0.701 1.562 1.562 1.562h7.067c0.048 1.908 1.611 3.445 3.53 3.445s3.482-1.538 3.53-3.445h6.996c0.862 0 1.562-0.701 1.562-1.562v-1.057c-0.001-0.565-0.387-1.171-0.92-1.439zM15.582 28.942c-1.309 0-2.372-1.043-2.42-2.34h4.841c-0.049 1.297-1.112 2.34-2.421 2.34zM26.564 25.039c0 0.252-0.205 0.457-0.457 0.457h-21.122c-0.252 0-0.457-0.205-0.457-0.457v-1.060c0-0.151 0.156-0.383 0.316-0.467 1.081-0.571 2.37-1.507 2.37-2.722l-0.001-0.084c-0.001-0.030-0.002-0.059 0.001-0.127v-5.884c0-3.857 2.618-7.195 6.367-8.116 0.247-0.061 0.421-0.282 0.421-0.537v-2.028c0-0.527 0.429-0.956 0.956-0.956h1.244c0.528 0 0.957 0.429 0.957 0.956v2.028c0 0.254 0.174 0.476 0.421 0.537 3.749 0.921 6.367 4.259 6.367 8.116v6.404c0 0.023 0.001 0.045 0.004 0.068 0.132 1.066 1.324 1.874 2.301 2.363 0.156 0.078 0.31 0.302 0.31 0.451v1.057z"></path>
</svg>
