<?xml version="1.0" encoding="utf-8"?>
<!-- Generated by IcoMoon.io -->
<!DOCTYPE svg PUBLIC "-//W3C//DTD SVG 1.1//EN" "http://www.w3.org/Graphics/SVG/1.1/DTD/svg11.dtd">
<svg version="1.1" xmlns="http://www.w3.org/2000/svg" xmlns:xlink="http://www.w3.org/1999/xlink" width="32" height="32" viewBox="0 0 32 32">
<path fill="#444" d="M28.392 10.121c-0.194 0.006-0.373 0.068-0.522 0.17-0.189 0.102-0.348 0.284-0.429 0.504-0.783 0.767-5.593 5.639-11.1 5.835-0.001 0-0.002 0-0.004 0-0.027 0-0.053 0.001-0.079 0.003-0.084 0.002-0.172 0.004-0.259 0.004-5.657 0-10.657-5.073-11.508-5.981-0.17-0.296-0.484-0.492-0.844-0.492-0.010 0-0.021 0-0.031 0-0.002-0-0.006-0-0.010-0-0.065 0-0.129 0.006-0.19 0.019-0.282 0.061-0.518 0.244-0.65 0.491l-2.465 2.356c-0.229 0.179-0.375 0.456-0.375 0.766 0 0.536 0.434 0.97 0.97 0.97 0.296 0 0.561-0.132 0.739-0.341l1.959-1.893c0.787 0.807 2.215 2.141 4.104 3.354l-1.547 2.508c-0.092 0.146-0.146 0.324-0.146 0.515 0 0.541 0.439 0.98 0.98 0.98 0.35 0 0.658-0.184 0.831-0.461l1.581-2.563c1.75 0.895 3.774 1.581 5.967 1.694v2.289c-0 0.003-0 0.007-0 0.011 0 0.536 0.434 0.97 0.97 0.97s0.97-0.434 0.97-0.97c0-0.004-0-0.008-0-0.012v-2.341c1.809-0.19 3.491-0.757 4.986-1.485l1.893 3.039c0.176 0.281 0.483 0.465 0.834 0.465 0.541 0 0.98-0.439 0.98-0.98 0-0.191-0.055-0.369-0.149-0.519l-1.839-2.954c2.035-1.259 3.571-2.691 4.398-3.54l1.958 1.892c0.179 0.21 0.444 0.343 0.74 0.343 0.536 0 0.97-0.434 0.97-0.97 0-0.311-0.146-0.587-0.373-0.765l-2.382-2.3c-0.147-0.361-0.495-0.611-0.901-0.611-0.009 0-0.017 0-0.026 0z"></path>
</svg>
