<?xml version="1.0" encoding="utf-8"?>
<!-- Generated by IcoMoon.io -->
<!DOCTYPE svg PUBLIC "-//W3C//DTD SVG 1.1//EN" "http://www.w3.org/Graphics/SVG/1.1/DTD/svg11.dtd">
<svg version="1.1" xmlns="http://www.w3.org/2000/svg" xmlns:xlink="http://www.w3.org/1999/xlink" width="32" height="32" viewBox="0 0 32 32">
<path fill="#444" d="M18.563 5.954c-3.318 0-6.181 1.936-7.54 4.737-0.713-0.486-1.576-0.771-2.5-0.771-2.359 0-4.293 1.854-4.434 4.177-2.382 0.851-4.089 3.124-4.089 5.792 0 3.393 2.763 6.155 6.157 6.155h20.179c3.121 0 5.664-2.542 5.664-5.663-0.001-2.918-2.222-5.33-5.062-5.632 0.008-0.134 0.016-0.267 0.016-0.405 0-4.627-3.764-8.391-8.391-8.391zM18.563 7.134c3.99 0 7.212 3.222 7.212 7.212 0 0.295-0.025 0.591-0.062 0.893l-0.085 0.692 0.697-0.032c0.050-0.002 0.055-0.002 0.011-0.002 2.485 0 4.484 2.001 4.485 4.485s-2.001 4.484-4.485 4.484h-20.179c-2.757 0-4.977-2.22-4.977-4.976 0-2.295 1.548-4.212 3.651-4.793l0.448-0.124-0.016-0.464c-0.003-0.088-0.008-0.133-0.008-0.141 0-1.811 1.456-3.267 3.268-3.267 0.906 0 1.72 0.365 2.312 0.959l0.651 0.652 0.32-0.863c1.017-2.749 3.649-4.714 6.758-4.714z"></path>
</svg>
