<?xml version="1.0" encoding="utf-8"?>
<!-- Generated by IcoMoon.io -->
<!DOCTYPE svg PUBLIC "-//W3C//DTD SVG 1.1//EN" "http://www.w3.org/Graphics/SVG/1.1/DTD/svg11.dtd">
<svg version="1.1" xmlns="http://www.w3.org/2000/svg" xmlns:xlink="http://www.w3.org/1999/xlink" width="30" height="32" viewBox="0 0 30 32">
<path fill="#444" d="M28.234 13.3h-4.098c-0.184-0.62-0.433-1.221-0.743-1.794l2.894-2.895c0.22-0.22 0.22-0.576 0-0.797l-3.018-3.021c-0.105-0.105-0.249-0.164-0.398-0.164s-0.292 0.059-0.398 0.164l-2.896 2.896c-0.569-0.309-1.17-0.558-1.793-0.744v-4.096c0-0.311-0.252-0.563-0.563-0.563h-4.273c-0.31 0-0.563 0.252-0.563 0.563v4.095c-0.622 0.185-1.224 0.434-1.795 0.744l-2.894-2.896c-0.212-0.211-0.586-0.211-0.798 0l-3.018 3.021c-0.219 0.22-0.219 0.577 0 0.797l2.895 2.894c-0.31 0.572-0.559 1.173-0.743 1.795h-4.097c-0.311 0-0.563 0.253-0.563 0.563v4.273c0 0.311 0.252 0.563 0.563 0.563h4.097c0.184 0.621 0.433 1.222 0.743 1.794l-2.895 2.895c-0.219 0.219-0.219 0.576 0 0.797l3.018 3.021c0.105 0.105 0.249 0.165 0.398 0.165s0.292-0.059 0.399-0.165l2.894-2.895c0.571 0.31 1.172 0.558 1.795 0.743v4.095c0 0.311 0.253 0.563 0.563 0.563h4.273c0.311 0 0.563-0.253 0.563-0.563v-4.096c0.623-0.185 1.224-0.434 1.793-0.742l2.896 2.895c0.105 0.105 0.249 0.165 0.398 0.165s0.292-0.059 0.398-0.165l3.018-3.021c0.22-0.22 0.22-0.576 0-0.797l-2.894-2.896c0.31-0.573 0.559-1.173 0.743-1.793h4.098c0.311 0 0.563-0.252 0.563-0.563v-4.273c0-0.31-0.252-0.563-0.563-0.563zM27.671 17.574h-3.965c-0.259 0-0.485 0.177-0.547 0.428-0.198 0.805-0.518 1.577-0.95 2.295-0.134 0.222-0.1 0.506 0.084 0.689l2.8 2.802-2.222 2.225-2.802-2.802c-0.184-0.183-0.469-0.218-0.69-0.083-0.71 0.431-1.482 0.75-2.293 0.949-0.252 0.063-0.428 0.288-0.428 0.547v3.963h-3.147v-3.962c0-0.259-0.177-0.485-0.428-0.547-0.811-0.199-1.583-0.519-2.296-0.95-0.221-0.133-0.506-0.1-0.689 0.084l-2.801 2.802-2.223-2.225 2.801-2.802c0.183-0.183 0.218-0.468 0.084-0.69-0.433-0.715-0.752-1.487-0.95-2.293-0.062-0.252-0.287-0.429-0.547-0.429h-3.965v-3.146h3.965c0.26 0 0.485-0.177 0.547-0.428 0.198-0.808 0.518-1.58 0.95-2.295 0.134-0.221 0.1-0.506-0.084-0.689l-2.801-2.801 2.222-2.224 2.801 2.802c0.183 0.183 0.469 0.218 0.69 0.084 0.714-0.433 1.486-0.753 2.295-0.952 0.252-0.062 0.428-0.287 0.428-0.547v-3.962h3.147v3.962c0 0.259 0.177 0.484 0.428 0.547 0.813 0.201 1.585 0.522 2.293 0.952 0.222 0.134 0.506 0.1 0.69-0.084l2.802-2.802 2.222 2.224-2.8 2.801c-0.183 0.182-0.217 0.466-0.085 0.688 0.433 0.721 0.753 1.493 0.95 2.297 0.063 0.252 0.288 0.428 0.547 0.428h3.965v3.146h0.001z"></path>
<path fill="#444" d="M15.082 11.487c-2.61 0-4.733 2.124-4.733 4.735s2.123 4.735 4.733 4.735c2.612 0 4.736-2.124 4.736-4.735s-2.124-4.735-4.736-4.735zM15.082 19.83c-1.989 0-3.607-1.619-3.607-3.609s1.618-3.609 3.607-3.609c1.99 0 3.61 1.619 3.61 3.609s-1.619 3.609-3.61 3.609z"></path>
</svg>
