<?xml version="1.0" encoding="utf-8"?>
<!-- Generated by IcoMoon.io -->
<!DOCTYPE svg PUBLIC "-//W3C//DTD SVG 1.1//EN" "http://www.w3.org/Graphics/SVG/1.1/DTD/svg11.dtd">
<svg version="1.1" xmlns="http://www.w3.org/2000/svg" xmlns:xlink="http://www.w3.org/1999/xlink" width="32" height="32" viewBox="0 0 32 32">
<path fill="#444" d="M13.647 1.938c-0.463 0.045-0.822 0.432-0.822 0.903 0 0.001 0 0.003 0 0.004v3.048c-0.545 0.173-1.105 0.406-1.701 0.709l-2.169-2.169c-0.164-0.162-0.389-0.262-0.638-0.262s-0.474 0.1-0.638 0.262l-3.246 3.246c-0.162 0.164-0.262 0.389-0.262 0.638s0.1 0.474 0.262 0.638l2.183 2.169c-0.305 0.608-0.537 1.167-0.71 1.701h-3.062c-0.501 0-0.907 0.406-0.907 0.907v3.628c0 0.501 0.406 0.907 0.907 0.907h2.977c0.18 0.945 0.448 1.814 0.808 2.58l-2.197 2.197c-0.162 0.164-0.262 0.389-0.262 0.638s0.1 0.474 0.262 0.638l3.246 3.246c0.164 0.162 0.389 0.262 0.638 0.262s0.474-0.1 0.638-0.262l2.183-2.197c0.355 0.16 0.712 0.332 1.049 0.453 0.319 0.115 0.425 0.162 0.638 0.242v3.090c0 0.501 0.406 0.907 0.907 0.907h4.536c0.501-0 0.907-0.406 0.907-0.907v-3.090c0.213-0.080 0.319-0.127 0.638-0.242 0.333-0.119 0.684-0.296 1.035-0.453l2.197 2.197c0.164 0.162 0.389 0.262 0.638 0.262s0.474-0.1 0.638-0.262l3.246-3.246c0.162-0.164 0.262-0.389 0.262-0.638s-0.1-0.474-0.262-0.638l-2.169-2.169c0.311-0.579 0.576-1.409 0.779-2.608h2.977c0.501-0 0.907-0.406 0.907-0.907v-3.628c-0-0.501-0.406-0.907-0.907-0.907h-3.062c-0.185-0.588-0.409-1.162-0.695-1.716l2.169-2.154c0.162-0.164 0.262-0.389 0.262-0.638s-0.1-0.474-0.262-0.638l-3.246-3.246c-0.164-0.162-0.389-0.262-0.638-0.262s-0.474 0.1-0.638 0.262l-2.169 2.169c-0.594-0.304-1.157-0.524-1.701-0.695v-3.062c-0-0.501-0.406-0.907-0.907-0.907h-4.536c-0.013-0.001-0.028-0.001-0.043-0.001s-0.030 0-0.045 0.001zM14.64 3.752h2.721v2.807c0 0 0 0.001 0 0.001 0 0.441 0.315 0.809 0.732 0.89 0.231 0.045 1.79 0.612 2.486 1.036 0.134 0.083 0.297 0.132 0.471 0.132 0.255 0 0.485-0.105 0.649-0.274l1.984-1.985 1.956 1.956-1.985 1.984c-0.169 0.165-0.274 0.395-0.274 0.649 0 0.174 0.049 0.337 0.134 0.475 0.46 0.753 0.836 1.653 1.047 2.519 0.099 0.401 0.455 0.694 0.879 0.695h2.807v1.814h-2.807c-0.002 0-0.003-0-0.005-0-0.466 0-0.85 0.352-0.902 0.804-0.231 2.172-0.496 2.462-1.021 3.321-0.083 0.134-0.132 0.297-0.132 0.471 0 0.255 0.105 0.485 0.274 0.649l1.985 1.984-1.956 1.956-1.984-1.985c-0.165-0.169-0.395-0.274-0.649-0.274-0.174 0-0.337 0.049-0.475 0.134-0.302 0.185-0.85 0.421-1.371 0.608s-0.955 0.295-1.375 0.525c-0.281 0.158-0.468 0.454-0.468 0.794v2.807h-2.721v-2.807c0-0.34-0.187-0.636-0.463-0.791-0.424-0.232-0.859-0.34-1.38-0.527s-1.068-0.422-1.375-0.61c-0.134-0.083-0.297-0.132-0.471-0.132-0.255 0-0.485 0.105-0.649 0.274l-1.984 1.985-1.956-1.956 1.985-1.984c0.169-0.165 0.274-0.395 0.274-0.649 0-0.174-0.049-0.337-0.134-0.475-0.393-0.643-0.862-2.065-1.033-3.341-0.064-0.442-0.439-0.777-0.893-0.78h-2.807v-1.814h2.807c0.425-0.002 0.78-0.294 0.878-0.689 0.098-0.406 0.627-1.836 1.050-2.529 0.083-0.134 0.132-0.297 0.132-0.471 0-0.255-0.105-0.485-0.274-0.649l-1.985-1.984 1.956-1.956 1.984 1.985c0.165 0.169 0.395 0.274 0.649 0.274 0.174 0 0.337-0.049 0.475-0.134 0.698-0.427 2.117-0.949 2.505-1.033 0.409-0.094 0.71-0.455 0.71-0.886 0-0.003 0-0.005-0-0.008v-2.807zM16 10.103c-3.247 0-5.897 2.651-5.897 5.897s2.65 5.897 5.897 5.897c3.246 0 5.897-2.651 5.897-5.897s-2.651-5.897-5.897-5.897zM16 11.918c2.265 0 4.082 1.817 4.082 4.082s-1.817 4.082-4.082 4.082c-2.266 0-4.082-1.817-4.082-4.082s1.816-4.082 4.082-4.082z"></path>
</svg>
