<?xml version="1.0" encoding="utf-8"?>
<!-- Generated by IcoMoon.io -->
<!DOCTYPE svg PUBLIC "-//W3C//DTD SVG 1.1//EN" "http://www.w3.org/Graphics/SVG/1.1/DTD/svg11.dtd">
<svg version="1.1" xmlns="http://www.w3.org/2000/svg" xmlns:xlink="http://www.w3.org/1999/xlink" width="32" height="32" viewBox="0 0 32 32">
<path fill="#444" d="M2.501 26.508c-0.133 0-0.264-0.053-0.36-0.153-0.146-0.151-0.182-0.378-0.090-0.566l2.612-5.368c-2.398-2.046-3.663-4.703-3.663-7.706 0-6.19 6.060-11.226 13.51-11.226 7.582 0 13.989 5.141 13.989 11.226 0 0.685-0.077 1.371-0.228 2.039l-0.976-0.221c0.135-0.596 0.203-1.208 0.203-1.819 0-5.542-5.948-10.225-12.988-10.225-6.897 0-12.509 4.587-12.509 10.225 0 2.815 1.244 5.298 3.597 7.18 0.183 0.146 0.24 0.399 0.137 0.609l-2.185 4.489 5.948-2.641c0.11-0.049 0.234-0.056 0.349-0.021 1.174 0.359 2.553 0.611 3.69 0.675l-0.057 0.999c-1.171-0.066-2.526-0.307-3.745-0.663l-7.032 3.123c-0.066 0.029-0.135 0.043-0.203 0.043zM31 23.005c0-4.138-3.367-7.505-7.505-7.505s-7.505 3.367-7.505 7.505c0 4.138 3.367 7.505 7.505 7.505s7.505-3.367 7.505-7.505zM29.999 23.005c0 3.587-2.918 6.505-6.505 6.505s-6.505-2.918-6.505-6.505c0-3.587 2.918-6.505 6.505-6.505s6.505 2.918 6.505 6.505zM27.867 20.84c0.186-0.205 0.171-0.521-0.034-0.707s-0.521-0.171-0.707 0.034l-4.651 5.116-2.631-2.631c-0.196-0.196-0.512-0.196-0.707 0s-0.196 0.512 0 0.707l3.373 3.373 5.356-5.892z"></path>
</svg>
