<?xml version="1.0" encoding="utf-8"?>
<!-- Generated by IcoMoon.io -->
<!DOCTYPE svg PUBLIC "-//W3C//DTD SVG 1.1//EN" "http://www.w3.org/Graphics/SVG/1.1/DTD/svg11.dtd">
<svg version="1.1" xmlns="http://www.w3.org/2000/svg" xmlns:xlink="http://www.w3.org/1999/xlink" width="32" height="32" viewBox="0 0 32 32">
<path fill="#444" d="M14.33 1.501c-7.394 0.077-13.324 5.025-13.324 11.219 0 3.008 1.345 5.657 3.672 7.656l-2.625 5.406c-0.031 0.063-0.049 0.137-0.049 0.216 0 0.276 0.224 0.5 0.5 0.5 0.074 0 0.145-0.016 0.208-0.045l7.044-3.124c1.087 0.317 2.426 0.599 3.719 0.672l0.047-1c-1.259-0.071-2.633-0.354-3.672-0.672-0.048-0.017-0.102-0.026-0.159-0.026-0.072 0-0.141 0.015-0.203 0.043l-5.95 2.655 2.203-4.5c0.031-0.063 0.050-0.138 0.050-0.217 0-0.159-0.074-0.3-0.189-0.392-2.333-1.866-3.595-4.325-3.595-7.173 0-5.595 5.466-10.219 12.5-10.219 3.517 0 6.773 1.167 9.141 3.031s3.828 4.403 3.828 7.188c0 0.621-0.069 1.224-0.203 1.813l0.984 0.219c0.15-0.661 0.219-1.336 0.219-2.031 0-3.135-1.645-5.954-4.203-7.969s-6.028-3.25-9.766-3.25c-0.058 0-0.118-0.001-0.176 0zM23.506 15.501c-4.136 0-7.5 3.364-7.5 7.5s3.364 7.5 7.5 7.5c4.136 0 7.5-3.364 7.5-7.5s-3.364-7.5-7.5-7.5zM23.506 16.501c1.618 0 3.096 0.589 4.232 1.563l-9.176 9.161c-0.971-1.135-1.557-2.61-1.557-4.225 0-3.596 2.904-6.5 6.5-6.5zM28.442 18.768c0.975 1.136 1.563 2.615 1.563 4.233 0 3.596-2.904 6.5-6.5 6.5-1.618 0-3.097-0.589-4.233-1.563l9.17-9.17z"></path>
</svg>
