<?xml version="1.0" encoding="utf-8"?>
<!-- Generated by IcoMoon.io -->
<!DOCTYPE svg PUBLIC "-//W3C//DTD SVG 1.1//EN" "http://www.w3.org/Graphics/SVG/1.1/DTD/svg11.dtd">
<svg version="1.1" xmlns="http://www.w3.org/2000/svg" xmlns:xlink="http://www.w3.org/1999/xlink" width="32" height="32" viewBox="0 0 32 32">
<path fill="#444" d="M4.033 8.24c-0.001 0-0.003 0-0.004 0-0.982 0-1.779 0.796-1.779 1.779 0 0.501 0.207 0.954 0.541 1.277l5.040 5.040 6.928 6.91c0.321 0.318 0.763 0.514 1.251 0.514s0.93-0.196 1.251-0.514l11.967-11.95c0.322-0.322 0.522-0.768 0.522-1.26 0-0.984-0.798-1.782-1.782-1.782-0.492 0-0.938 0.199-1.26 0.522l-10.689 10.708-10.708-10.708c-0.323-0.331-0.774-0.537-1.273-0.537-0.002 0-0.003 0-0.005 0z"></path>
</svg>
