<?xml version="1.0" encoding="utf-8"?>
<!-- Generated by IcoMoon.io -->
<!DOCTYPE svg PUBLIC "-//W3C//DTD SVG 1.1//EN" "http://www.w3.org/Graphics/SVG/1.1/DTD/svg11.dtd">
<svg version="1.1" xmlns="http://www.w3.org/2000/svg" xmlns:xlink="http://www.w3.org/1999/xlink" width="32" height="32" viewBox="0 0 32 32">
<path fill="#444" d="M1.004 0c-0.001 0-0.002 0-0.002 0-0.075 0-0.147 0.009-0.217 0.025-0.446 0.083-0.784 0.476-0.784 0.947 0 0.28 0.119 0.532 0.309 0.708l14.321 14.315-14.272 14.293c-0.218 0.178-0.357 0.447-0.357 0.749 0 0.532 0.431 0.964 0.963 0.964 0.301 0 0.57-0.138 0.747-0.355l14.288-14.282 14.287 14.28c0.178 0.219 0.447 0.357 0.748 0.357 0.532 0 0.963-0.431 0.963-0.964 0-0.302-0.138-0.571-0.355-0.747l-14.274-14.295 14.321-14.315c0.191-0.177 0.31-0.429 0.31-0.708 0-0.471-0.338-0.864-0.785-0.947-0.069-0.016-0.141-0.024-0.216-0.024-0.272 0-0.518 0.113-0.693 0.295l-14.306 14.328-14.306-14.327c-0.175-0.182-0.42-0.295-0.692-0.295z"></path>
</svg>
