<?xml version="1.0" encoding="utf-8"?>
<!-- Generated by IcoMoon.io -->
<!DOCTYPE svg PUBLIC "-//W3C//DTD SVG 1.1//EN" "http://www.w3.org/Graphics/SVG/1.1/DTD/svg11.dtd">
<svg version="1.1" xmlns="http://www.w3.org/2000/svg" xmlns:xlink="http://www.w3.org/1999/xlink" width="30" height="32" viewBox="0 0 30 32">
<path fill="#444" d="M25.512 3.635h-1.81v-2.222c0-0.332-0.269-0.601-0.601-0.601h-17.051c-0.911 0-1.672 0.566-1.911 1.332-0.050 0.088-0.085 0.183-0.085 0.29v21.919c0 1.1 0.895 1.995 1.995 1.995h2.284v4.127c0 0.221 0.121 0.423 0.315 0.529s0.43 0.095 0.614-0.026l2.448-1.601 2.559 1.709c0.1 0.067 0.217 0.101 0.334 0.101 0.097 0 0.195-0.024 0.283-0.071 0.196-0.104 0.318-0.308 0.318-0.53v-4.238h10.306c0.331 0 0.601-0.269 0.601-0.601v-21.513c0.001-0.332-0.268-0.601-0.599-0.601zM6.050 2.014h16.451v1.621h-16.451c-0.438 0-0.793-0.283-0.793-0.631v-0.359c-0.001-0.348 0.356-0.631 0.793-0.631zM14.004 29.464l-1.956-1.306c-0.101-0.067-0.217-0.101-0.333-0.101-0.114 0-0.23 0.033-0.329 0.098l-1.85 1.211v-3.016h4.468v3.114zM14.605 25.148h-8.554c-0.438 0-0.793-0.356-0.793-0.794v-19.671c0.244 0.098 0.511 0.153 0.793 0.153h18.862v20.311h-10.307z"></path>
</svg>
