<?xml version="1.0" encoding="utf-8"?>
<!-- Generated by IcoMoon.io -->
<!DOCTYPE svg PUBLIC "-//W3C//DTD SVG 1.1//EN" "http://www.w3.org/Graphics/SVG/1.1/DTD/svg11.dtd">
<svg version="1.1" xmlns="http://www.w3.org/2000/svg" xmlns:xlink="http://www.w3.org/1999/xlink" width="32" height="32" viewBox="0 0 32 32">
<path fill="#444" d="M4.258 11.744c-2.348 0-4.258 1.91-4.258 4.257s1.91 4.255 4.258 4.255c2.347 0 4.256-1.908 4.256-4.255s-1.909-4.257-4.256-4.257zM16.070 11.744c-2.346 0-4.255 1.91-4.255 4.257s1.909 4.255 4.255 4.255c2.347 0 4.258-1.908 4.258-4.255s-1.911-4.257-4.258-4.257zM27.743 11.744c-2.348 0-4.257 1.91-4.257 4.257s1.909 4.255 4.257 4.255c2.347 0 4.257-1.908 4.257-4.255s-1.911-4.257-4.257-4.257zM4.258 13.183c1.553 0 2.817 1.264 2.817 2.818s-1.263 2.816-2.817 2.816c-1.554 0-2.819-1.262-2.819-2.816s1.264-2.818 2.819-2.818zM16.070 13.183c1.554 0 2.819 1.264 2.819 2.818s-1.264 2.816-2.819 2.816c-1.553 0-2.816-1.262-2.816-2.816s1.263-2.818 2.816-2.818zM27.743 13.183c1.554 0 2.818 1.264 2.818 2.818s-1.264 2.816-2.818 2.816-2.819-1.262-2.819-2.816c0-1.553 1.264-2.818 2.819-2.818z"></path>
</svg>
