<?xml version="1.0" encoding="utf-8"?>
<!-- Generated by IcoMoon.io -->
<!DOCTYPE svg PUBLIC "-//W3C//DTD SVG 1.1//EN" "http://www.w3.org/Graphics/SVG/1.1/DTD/svg11.dtd">
<svg version="1.1" xmlns="http://www.w3.org/2000/svg" xmlns:xlink="http://www.w3.org/1999/xlink" width="32" height="32" viewBox="0 0 32 32">
<path fill="#444" d="M29.588 12.629l-3.216-3.635 1.825-4.342c0.102-0.242 0.047-0.521-0.139-0.706s-0.464-0.241-0.706-0.139l-4.348 1.825-3.632-3.215c-0.2-0.178-0.488-0.213-0.724-0.090-0.237 0.122-0.374 0.378-0.345 0.644l0.522 4.746-4.052 2.352c-0.228 0.133-0.353 0.391-0.314 0.652 0.038 0.261 0.232 0.473 0.488 0.534l3.94 0.94-16.449 16.45c-0.252 0.252-0.252 0.66 0 0.913 0.126 0.126 0.291 0.189 0.456 0.189s0.33-0.063 0.456-0.189l16.456-16.457 0.941 3.956c0.061 0.257 0.272 0.451 0.533 0.488 0.032 0.006 0.063 0.008 0.094 0.008 0.227 0 0.441-0.12 0.558-0.321l2.357-4.056 4.743 0.522c0.269 0.029 0.521-0.108 0.643-0.344 0.122-0.239 0.087-0.527-0.090-0.726zM24.015 11.846c-0.257-0.029-0.501 0.097-0.629 0.317l-1.756 3.022-0.832-3.498c-0.056-0.237-0.241-0.422-0.478-0.479l-3.501-0.835 3.019-1.753c0.221-0.128 0.345-0.375 0.316-0.629l-0.385-3.503 2.684 2.376c0.185 0.164 0.449 0.208 0.677 0.112l3.265-1.371-1.37 3.259c-0.097 0.228-0.054 0.492 0.111 0.677l2.377 2.688-3.5-0.385z"></path>
</svg>
