<?xml version="1.0" encoding="utf-8"?>
<!-- Generated by IcoMoon.io -->
<!DOCTYPE svg PUBLIC "-//W3C//DTD SVG 1.1//EN" "http://www.w3.org/Graphics/SVG/1.1/DTD/svg11.dtd">
<svg version="1.1" xmlns="http://www.w3.org/2000/svg" xmlns:xlink="http://www.w3.org/1999/xlink" width="32" height="32" viewBox="0 0 32 32">
<path fill="#444" d="M15.997 1c-8.269 0-14.997 6.728-14.997 15.001 0 8.271 6.728 14.999 14.997 14.999 8.273 0 15.003-6.728 15.003-14.999 0.002-8.273-6.73-15.001-15.003-15.001zM15.997 29.269c-7.315 0-13.266-5.953-13.266-13.268s5.951-13.269 13.266-13.269c7.319 0 13.271 5.953 13.271 13.269s-5.953 13.268-13.271 13.268zM17.296 23.467c0 0.665-0.538 1.205-1.203 1.205-0.663 0-1.2-0.54-1.2-1.205s0.538-1.202 1.2-1.202c0.665 0 1.203 0.537 1.203 1.202zM15.227 18.71v-9.772c0-0.478 0.388-0.866 0.866-0.866s0.866 0.388 0.866 0.866v9.772c0 0.478-0.388 0.866-0.866 0.866s-0.866-0.386-0.866-0.866z"></path>
</svg>
