<?xml version="1.0" encoding="utf-8"?>
<!-- Generated by IcoMoon.io -->
<!DOCTYPE svg PUBLIC "-//W3C//DTD SVG 1.1//EN" "http://www.w3.org/Graphics/SVG/1.1/DTD/svg11.dtd">
<svg version="1.1" xmlns="http://www.w3.org/2000/svg" xmlns:xlink="http://www.w3.org/1999/xlink" width="32" height="32" viewBox="0 0 32 32">
<path fill="#444" d="M16 7.5c-8.362 0-14.891 8.703-14.891 8.703-0.064 0.083-0.102 0.188-0.102 0.303 0 0.123 0.044 0.236 0.118 0.323-0.001-0.001 6.554 7.671 14.874 7.671s14.875-7.672 14.875-7.672c0.073-0.086 0.118-0.199 0.118-0.322 0-0.114-0.038-0.22-0.103-0.304 0.001 0.001-6.527-8.702-14.89-8.702zM16 8.5c7.176 0 13.091 7.056 13.828 7.969-0.766 0.838-6.636 7.031-13.828 7.031s-13.062-6.193-13.828-7.031c0.737-0.913 6.652-7.969 13.828-7.969zM16 10.5c-3.032 0-5.5 2.468-5.5 5.5s2.468 5.5 5.5 5.5c3.031 0 5.5-2.468 5.5-5.5s-2.469-5.5-5.5-5.5zM16 11.5c2.491 0 4.5 2.009 4.5 4.5s-2.009 4.5-4.5 4.5c-2.491 0-4.5-2.009-4.5-4.5s2.009-4.5 4.5-4.5z"></path>
</svg>
