<?xml version="1.0" encoding="utf-8"?>
<!-- Generated by IcoMoon.io -->
<!DOCTYPE svg PUBLIC "-//W3C//DTD SVG 1.1//EN" "http://www.w3.org/Graphics/SVG/1.1/DTD/svg11.dtd">
<svg version="1.1" xmlns="http://www.w3.org/2000/svg" xmlns:xlink="http://www.w3.org/1999/xlink" width="32" height="32" viewBox="0 0 32 32">
<path fill="#444" d="M20.61 6.929c-2.841-3.383-5.681-5.518-5.8-5.607-0.218-0.162-0.519-0.149-0.721 0.032s-0.25 0.478-0.114 0.713c0.017 0.030 1.713 3.004 1.651 7.135-0.028 1.945-0.504 3.138-0.98 3.849 0.010-1.013-0.161-2.439-0.87-4.126-1.443-3.434-3.638-3.966-3.731-3.986-0.219-0.050-0.448 0.036-0.582 0.216s-0.15 0.425-0.040 0.621c0.066 0.118 1.594 2.937-0.653 6.467-1.708 2.685-4.441 9.71-1.981 14.287 1.476 2.747 4.514 4.181 9.029 4.262 0.004 0 0.007 0 0.010 0 0.005 0 0.010 0 0.015 0 0.1-0.003 9.973-0.39 10.339-10.607 0.15-4.151-1.777-8.735-5.573-13.255zM25.043 20.143c-0.325 9.050-8.708 9.488-9.218 9.506-4.063-0.076-6.764-1.308-8.029-3.661-2.198-4.092 0.411-10.733 1.939-13.134 1.583-2.488 1.536-4.701 1.23-6.098 0.551 0.486 1.206 1.291 1.76 2.609 1.235 2.942 0.629 4.967 0.623 4.985-0.069 0.213-0.007 0.447 0.158 0.598s0.405 0.191 0.61 0.103c0.105-0.045 2.582-1.16 2.651-5.833 0.033-2.222-0.395-4.115-0.844-5.471 3.164 2.847 9.373 9.355 9.119 16.396z"></path>
</svg>
