<?xml version="1.0" encoding="utf-8"?>
<!-- Generated by IcoMoon.io -->
<!DOCTYPE svg PUBLIC "-//W3C//DTD SVG 1.1//EN" "http://www.w3.org/Graphics/SVG/1.1/DTD/svg11.dtd">
<svg version="1.1" xmlns="http://www.w3.org/2000/svg" xmlns:xlink="http://www.w3.org/1999/xlink" width="32" height="32" viewBox="0 0 32 32">
<path fill="#444" d="M15.721 30.192c-0.005 0-0.011 0-0.016 0-4.479-0.081-7.502-1.522-8.986-4.283-2.439-4.539 0.24-11.457 1.919-14.097 2.042-3.209 0.676-5.764 0.618-5.871-0.17-0.308-0.145-0.69 0.066-0.972s0.569-0.415 0.909-0.338c0.242 0.054 2.4 0.631 3.832 4.039 0.431 1.026 0.661 1.958 0.772 2.76 0.192-0.601 0.33-1.375 0.345-2.366 0.058-3.898-1.526-6.66-1.542-6.687-0.214-0.368-0.14-0.834 0.177-1.117s0.79-0.303 1.13-0.049c0.467 0.348 11.437 8.653 11.084 18.44-0.291 8.123-6.855 10.446-10.285 10.539-0.008 0-0.016 0-0.024 0zM11.531 7.779c0.083 1.349-0.176 3.095-1.384 4.994-1.436 2.257-3.898 8.487-1.853 12.291 1.153 2.145 3.649 3.269 7.42 3.341 0.54-0.021 8.231-0.478 8.53-8.816 0.217-6.033-4.618-11.669-7.76-14.677 0.291 1.17 0.508 2.591 0.485 4.181-0.069 4.717-2.651 5.877-2.76 5.925-0.322 0.139-0.694 0.075-0.955-0.161-0.259-0.237-0.356-0.602-0.248-0.936 0.021-0.068 0.543-1.859-0.59-4.557-0.278-0.661-0.584-1.179-0.886-1.585z"></path>
</svg>
