<?xml version="1.0" encoding="utf-8"?>
<!-- Generated by IcoMoon.io -->
<!DOCTYPE svg PUBLIC "-//W3C//DTD SVG 1.1//EN" "http://www.w3.org/Graphics/SVG/1.1/DTD/svg11.dtd">
<svg version="1.1" xmlns="http://www.w3.org/2000/svg" xmlns:xlink="http://www.w3.org/1999/xlink" width="32" height="32" viewBox="0 0 32 32">
<path fill="#444" d="M14.946 1.213c-0.34-0.254-0.812-0.233-1.13 0.049s-0.391 0.75-0.177 1.117c0.016 0.027 1.6 2.789 1.542 6.687-0.015 0.991-0.153 1.765-0.345 2.366-0.111-0.802-0.342-1.735-0.772-2.76-1.431-3.408-3.59-3.985-3.832-4.039-0.34-0.077-0.699 0.057-0.909 0.338-0.212 0.282-0.237 0.663-0.066 0.972 0.059 0.107 1.425 2.662-0.618 5.871-1.68 2.639-4.358 9.558-1.919 14.097 1.484 2.761 4.508 4.202 8.986 4.283 0.005 0 0.011 0 0.016 0 0.008 0 0.016 0 0.024 0 3.43-0.093 9.994-2.416 10.285-10.539 0.353-9.787-10.617-18.091-11.084-18.44z"></path>
</svg>
