<?xml version="1.0" encoding="utf-8"?>
<!-- Generated by IcoMoon.io -->
<!DOCTYPE svg PUBLIC "-//W3C//DTD SVG 1.1//EN" "http://www.w3.org/Graphics/SVG/1.1/DTD/svg11.dtd">
<svg version="1.1" xmlns="http://www.w3.org/2000/svg" xmlns:xlink="http://www.w3.org/1999/xlink" width="32" height="32" viewBox="0 0 32 32">
<path fill="#444" d="M20.611 6.929c-2.841-3.383-5.681-5.518-5.801-5.607-0.218-0.162-0.519-0.149-0.721 0.032s-0.25 0.478-0.114 0.713c0.017 0.030 1.713 3.004 1.651 7.135-0.028 1.945-0.504 3.138-0.98 3.849 0.010-1.013-0.161-2.439-0.87-4.126-1.443-3.434-3.638-3.966-3.731-3.986-0.219-0.050-0.448 0.036-0.582 0.216s-0.15 0.425-0.040 0.621c0.066 0.118 1.594 2.937-0.653 6.467-1.708 2.685-4.441 9.71-1.981 14.287 1.476 2.747 4.514 4.181 9.029 4.263 0.004 0 0.007 0 0.010 0 0.005 0 0.010 0 0.015 0 0.1-0.004 9.973-0.39 10.339-10.608 0.15-4.151-1.777-8.735-5.572-13.255z"></path>
</svg>
