<?xml version="1.0" encoding="utf-8"?>
<!-- Generated by IcoMoon.io -->
<!DOCTYPE svg PUBLIC "-//W3C//DTD SVG 1.1//EN" "http://www.w3.org/Graphics/SVG/1.1/DTD/svg11.dtd">
<svg version="1.1" xmlns="http://www.w3.org/2000/svg" xmlns:xlink="http://www.w3.org/1999/xlink" width="30" height="32" viewBox="0 0 30 32">
<path fill="#444" d="M29.234 16c0-7.803-6.348-14.151-14.151-14.151s-14.151 6.348-14.151 14.151c0 4.030 1.727 7.882 4.737 10.566 2.594 2.312 5.937 3.585 9.415 3.585 5.611 0 10.694-3.318 12.956-8.453v0c0 0 0 0 0-0.001 0.003-0.005 0.005-0.010 0.008-0.015 0.788-1.794 1.187-3.706 1.187-5.682zM15.083 2.975c7.182 0 13.025 5.843 13.025 13.025 0 1.637-0.301 3.227-0.89 4.732-0.203-0.060-0.412-0.103-0.627-0.128-0.021-0.002-2.015-0.211-2.789-1.623 1.013-0.915 1.669-2.45 1.662-3.979-0.011-2.229-1.515-3.781-3.66-3.781-0.006 0-0.013 0-0.019 0-1.008 0.005-1.924 0.366-2.582 1.018-0.701 0.695-1.068 1.662-1.062 2.798 0.008 1.515 0.693 3.069 1.709 3.971-0.818 1.333-2.759 1.514-2.789 1.517-0.178 0.018-0.423 0.104-0.812 0.255-0.001 0.001-0.001 0.002-0.003 0.002-0.693-0.378-1.396-0.94-1.827-1.756 1.322-1.185 2.186-3.196 2.177-5.182-0.015-2.873-1.971-4.873-4.721-4.858-1.295 0.006-2.472 0.469-3.314 1.304-0.898 0.891-1.37 2.136-1.362 3.599 0.010 2.029 0.95 4.112 2.333 5.263-1.092 1.988-3.905 2.247-3.943 2.25-0.71 0.069-1.39 0.313-2 0.711-0.991-1.865-1.53-3.96-1.53-6.114-0.002-7.181 5.84-13.024 13.023-13.024zM6.418 25.725c-0.875-0.779-1.632-1.668-2.258-2.633 0.469-0.317 0.99-0.514 1.527-0.566 0.156-0.012 3.793-0.336 5.023-3.226 0.001-0.001 0.001-0.002 0.002-0.003 0.003-0.005 0.003-0.010 0.005-0.014 0.010-0.023 0.023-0.043 0.032-0.067 0.003-0.007 0.001-0.014 0.004-0.022 0.099-0.244 0.027-0.527-0.2-0.678-1.283-0.847-2.22-2.794-2.228-4.631-0.006-1.154 0.35-2.12 1.029-2.793 0.63-0.626 1.527-0.973 2.525-0.977 0.007 0 0.014 0 0.020 0 2.124 0 3.557 1.499 3.569 3.737 0.009 1.79-0.845 3.671-2.074 4.574-0.011 0.008-0.016 0.020-0.027 0.029-0.029 0.025-0.053 0.054-0.077 0.085-0.022 0.028-0.043 0.055-0.059 0.085-0.017 0.032-0.026 0.065-0.036 0.101s-0.020 0.068-0.023 0.105c-0.003 0.034 0.001 0.068 0.004 0.103 0.004 0.039 0.009 0.075 0.020 0.113 0.005 0.013 0.002 0.027 0.007 0.039 1.15 2.94 4.774 3.518 4.949 3.543 1.878 0.213 3.052 2.067 3.084 4.846-1.857 0.995-3.96 1.551-6.154 1.551-3.2 0-6.277-1.172-8.663-3.301zM22.338 26.811c-0.247-3.579-2.211-5.093-4.038-5.301-0.005-0.001-0.082-0.014-0.202-0.041 0.955-0.26 2.375-0.889 2.976-2.389 0.004-0.010 0.002-0.019 0.005-0.028 0.091-0.241 0.018-0.518-0.206-0.667-0.924-0.61-1.6-2.020-1.606-3.353-0.005-0.826 0.248-1.515 0.73-1.993 0.445-0.442 1.082-0.688 1.793-0.691 0.005 0 0.010 0 0.016 0 1.53 0 2.524 1.042 2.533 2.66 0.006 1.308-0.641 2.714-1.538 3.343-0.216 0.151-0.283 0.422-0.195 0.656 0.006 0.038 0.005 0.075 0.019 0.111 0.899 2.298 3.739 2.595 3.85 2.606 0.093 0.010 0.183 0.034 0.274 0.055-1.026 2.069-2.557 3.789-4.41 5.032z"></path>
</svg>
