<?xml version="1.0" encoding="utf-8"?>
<!-- Generated by IcoMoon.io -->
<!DOCTYPE svg PUBLIC "-//W3C//DTD SVG 1.1//EN" "http://www.w3.org/Graphics/SVG/1.1/DTD/svg11.dtd">
<svg version="1.1" xmlns="http://www.w3.org/2000/svg" xmlns:xlink="http://www.w3.org/1999/xlink" width="32" height="32" viewBox="0 0 32 32">
<path fill="#444" d="M24.77 1c-1.664 0-3.229 0.648-4.404 1.824-0.314 0.312-3.5 3.5-3.715 3.716-1.988 1.987-2.346 4.993-1.082 7.351l0.896-0.897c-0.822-1.849-0.481-4.093 1.033-5.606 0.216-0.216 3.399-3.401 3.713-3.714 0.951-0.951 2.215-1.475 3.559-1.475s2.607 0.523 3.558 1.474c0.951 0.951 1.475 2.214 1.475 3.559 0 1.343-0.524 2.607-1.475 3.558l-3.714 3.715c-0.95 0.95-2.215 1.473-3.559 1.473-0.719 0-1.413-0.154-2.050-0.439l-0.898 0.898c0.896 0.483 1.902 0.739 2.948 0.739 1.664 0 3.229-0.648 4.405-1.824l3.715-3.715c1.177-1.176 1.824-2.741 1.824-4.404s-0.648-3.228-1.825-4.405c-1.176-1.176-2.741-1.825-4.404-1.825zM21.427 9.981c-0.034 0-0.067 0.003-0.1 0.009-0.143 0.015-0.276 0.086-0.372 0.191l-10.797 10.796c-0.111 0.111-0.179 0.263-0.179 0.432 0 0.337 0.274 0.611 0.611 0.611 0.169 0 0.322-0.068 0.432-0.179l10.819-10.819c0.118-0.11 0.191-0.266 0.191-0.44 0-0.332-0.269-0.601-0.601-0.601-0.002 0-0.004 0-0.006 0zM10.945 14.826c-1.664 0-3.229 0.648-4.405 1.824l-3.715 3.715c-1.177 1.176-1.824 2.741-1.824 4.404s0.648 3.228 1.825 4.405c1.176 1.177 2.741 1.825 4.404 1.825 1.664 0 3.229-0.648 4.404-1.824 0.314-0.312 3.5-3.5 3.715-3.716 1.988-1.987 2.346-4.993 1.082-7.351l-0.896 0.897c0.822 1.849 0.481 4.093-1.033 5.606-0.216 0.216-3.399 3.401-3.713 3.714-0.951 0.951-2.214 1.475-3.559 1.475-1.343-0.001-2.607-0.523-3.558-1.474s-1.475-2.214-1.475-3.559c0-1.343 0.524-2.607 1.475-3.558l3.714-3.715c0.95-0.95 2.214-1.473 3.559-1.473 0.719 0 1.413 0.154 2.050 0.439l0.898-0.898c-0.896-0.483-1.902-0.739-2.948-0.739z"></path>
</svg>
