<?xml version="1.0" encoding="utf-8"?>
<!-- Generated by IcoMoon.io -->
<!DOCTYPE svg PUBLIC "-//W3C//DTD SVG 1.1//EN" "http://www.w3.org/Graphics/SVG/1.1/DTD/svg11.dtd">
<svg version="1.1" xmlns="http://www.w3.org/2000/svg" xmlns:xlink="http://www.w3.org/1999/xlink" width="32" height="32" viewBox="0 0 32 32">
<path fill="#444" d="M22.261 3.642c-1.035-0.007-2.068 0.33-2.853 1.116h-0.001l-4.85 4.849c-0.098 0.098-0.158 0.232-0.158 0.381 0 0.298 0.241 0.539 0.539 0.539 0.149 0 0.284-0.060 0.381-0.158l4.849-4.85c0.665-0.665 1.561-0.889 2.516-0.77s1.942 0.602 2.65 1.31l1.078 1.078c1.416 1.415 1.416 3.211 0 4.626v0.001l-6.467 6.466c-1.363 1.363-3.681 0.861-4.559-0.457-0.097-0.149-0.264-0.247-0.453-0.247-0.298 0-0.539 0.241-0.539 0.539 0 0.114 0.036 0.22 0.096 0.307 1.276 1.914 4.347 2.49 6.217 0.62l6.466-6.467c1.768-1.767 1.768-4.383 0-6.151l-1.078-1.078c-0.884-0.884-2.066-1.466-3.279-1.617-0.152-0.019-0.303-0.031-0.456-0.035-0.033-0.001-0.067-0.002-0.1-0.002zM14.466 11.624c-0.034 0-0.068 0.001-0.102 0.002-1.171 0.039-2.412 0.585-3.579 1.752l-5.928 5.928c-1.81 1.81-1.81 4.879 0 6.69l1.078 1.078c1.807 1.808 4.911 1.779 7.228-0.538l4.311-4.311c0.098-0.098 0.158-0.232 0.158-0.381 0-0.298-0.241-0.539-0.539-0.539-0.149 0-0.284 0.060-0.381 0.158l-4.311 4.311c-1.994 1.994-4.327 1.917-5.704 0.539l-1.078-1.078c-1.372-1.373-1.372-3.793 0-5.165l5.928-5.928c1.258-1.258 2.403-1.571 3.437-1.398s2.008 0.883 2.756 1.88c0.099 0.132 0.256 0.216 0.431 0.216 0.298 0 0.539-0.241 0.539-0.539 0-0.122-0.040-0.234-0.109-0.325-0.868-1.157-2.049-2.063-3.44-2.295-0.228-0.038-0.46-0.057-0.696-0.055z"></path>
</svg>
