<?xml version="1.0" encoding="utf-8"?>
<!-- Generated by IcoMoon.io -->
<!DOCTYPE svg PUBLIC "-//W3C//DTD SVG 1.1//EN" "http://www.w3.org/Graphics/SVG/1.1/DTD/svg11.dtd">
<svg version="1.1" xmlns="http://www.w3.org/2000/svg" xmlns:xlink="http://www.w3.org/1999/xlink" width="32" height="32" viewBox="0 0 32 32">
<path fill="#444" d="M16 1c-8.271 0-15 6.729-15 15s6.729 15 15 15c8.271 0 15-6.729 15-15s-6.729-15-15-15zM16 2.194c7.613 0 13.806 6.194 13.806 13.806 0 2.676-0.767 5.174-2.090 7.291l-4.367-8.067c-0.447-0.846-1.341-1.372-2.332-1.372-0.92 0-1.782 0.471-2.252 1.23l-3.182 5.154c-0.928-1.063-2.932-2.974-5.351-2.974-2.84 0-5.186 4.346-5.974 5.992-1.308-2.11-2.066-4.594-2.066-7.254 0-7.613 6.194-13.806 13.806-13.806zM16 29.807c-4.464 0-8.438-2.132-10.964-5.428 0.020-0.030 0.047-0.054 0.062-0.089 0.703-1.622 2.994-5.833 5.135-5.833 2.658 0 4.905 3.126 4.927 3.158 0.116 0.163 0.307 0.255 0.506 0.252 0.2-0.007 0.384-0.112 0.489-0.283l3.626-5.873c0.253-0.409 0.726-0.664 1.236-0.664 0.539 0 1.040 0.288 1.279 0.741l4.629 8.549c0.010 0.018 0.023 0.030 0.033 0.047-2.525 3.295-6.497 5.424-10.958 5.424z"></path>
<path fill="#444" d="M8.465 14.473c0.053 0 0.105-0.002 0.159-0.006l3.428-0.001c0.057 0.003 0.114 0.005 0.17 0.005 0 0 0 0 0 0 0.908 0 1.758-0.37 2.392-1.043 0.624-0.661 0.967-1.538 0.967-2.469 0-1.98-1.57-3.591-3.499-3.591-1.513 0-2.813 0.979-3.294 2.403-1.349-0.121-2.527 1.001-2.527 2.385 0 1.278 0.989 2.317 2.204 2.317zM8.599 10.958c0.134 0 0.266 0.027 0.403 0.082 0.17 0.068 0.36 0.056 0.518-0.034s0.267-0.248 0.295-0.428c0.181-1.167 1.134-2.015 2.265-2.015 1.271 0 2.305 1.075 2.305 2.397 0 0.625-0.228 1.211-0.642 1.649-0.407 0.431-0.948 0.668-1.524 0.668-0.036 0-0.073-0.001-0.139-0.004h-3.482c-0.017 0-0.034 0.001-0.051 0.002-0.595 0.049-1.093-0.469-1.093-1.119 0-0.661 0.513-1.199 1.144-1.199z"></path>
</svg>
