<?xml version="1.0" encoding="utf-8"?>
<!-- Generated by IcoMoon.io -->
<!DOCTYPE svg PUBLIC "-//W3C//DTD SVG 1.1//EN" "http://www.w3.org/Graphics/SVG/1.1/DTD/svg11.dtd">
<svg version="1.1" xmlns="http://www.w3.org/2000/svg" xmlns:xlink="http://www.w3.org/1999/xlink" width="32" height="32" viewBox="0 0 32 32">
<path fill="#444" d="M16.049 0.356c-8.431 0-15.303 6.872-15.303 15.303s6.872 15.303 15.303 15.303c8.431 0.049 15.303-6.823 15.303-15.254s-6.872-15.352-15.303-15.352zM16.049 29.792c-7.749 0-14.085-6.336-14.085-14.085s6.336-14.085 14.085-14.085 14.085 6.336 14.085 14.085c0 7.749-6.336 14.085-14.085 14.085z"></path>
<path fill="#444" d="M20.679 7.959h-9.26c-1.706 0-3.119 1.413-3.119 3.119v9.26c0 1.706 1.413 3.119 3.119 3.119h9.26c1.706 0 3.119-1.413 3.119-3.119v-9.26c0-1.754-1.413-3.119-3.119-3.119zM11.419 9.177h9.26c1.023 0 1.901 0.828 1.901 1.901v1.511h-3.753c-0.731-0.731-1.754-1.121-2.827-1.121-1.121 0-2.096 0.439-2.827 1.121h-3.655v-1.511c0-1.072 0.828-1.901 1.901-1.901zM16 12.686c1.608 0 2.875 1.316 2.875 2.875 0 1.608-1.316 2.875-2.875 2.875s-2.875-1.316-2.875-2.875c-0.049-1.608 1.267-2.875 2.875-2.875zM20.679 22.189h-9.26c-1.023 0-1.901-0.828-1.901-1.901v-6.482h2.778c-0.244 0.536-0.39 1.121-0.39 1.754 0 2.242 1.852 4.094 4.094 4.094s4.094-1.852 4.094-4.094c0-0.634-0.146-1.218-0.39-1.754h2.875v6.482c0 1.072-0.877 1.901-1.901 1.901z"></path>
<path fill="#444" d="M20.094 11.906h1.023c0.244 0 0.439-0.195 0.439-0.439v-1.023c0-0.244-0.195-0.439-0.439-0.439h-1.023c-0.244 0-0.439 0.195-0.439 0.439v1.023c0.049 0.244 0.195 0.439 0.439 0.439z"></path>
</svg>
