<?xml version="1.0" encoding="utf-8"?>
<!-- Generated by IcoMoon.io -->
<!DOCTYPE svg PUBLIC "-//W3C//DTD SVG 1.1//EN" "http://www.w3.org/Graphics/SVG/1.1/DTD/svg11.dtd">
<svg version="1.1" xmlns="http://www.w3.org/2000/svg" xmlns:xlink="http://www.w3.org/1999/xlink" width="37" height="32" viewBox="0 0 37 32">
<path fill="#444" d="M34.001 4.916c-0.011-0.029-0.029-0.054-0.044-0.081-0.381-0.701-1.115-1.183-1.967-1.183h-26.936c-0.848 0-1.578 0.477-1.961 1.172-0.018 0.032-0.040 0.061-0.053 0.096-0.146 0.298-0.235 0.629-0.235 0.982v20.196c0 1.24 1.009 2.249 2.249 2.249h26.936c1.24 0 2.249-1.009 2.249-2.249v-20.196c0-0.355-0.090-0.687-0.238-0.986zM31.989 5.003c0.163 0 0.309 0.056 0.44 0.132l-13.273 13.273c-0.34 0.34-0.931 0.34-1.271 0l-13.273-13.273c0.132-0.077 0.278-0.133 0.441-0.133h26.936zM31.989 26.996h-26.936c-0.495 0-0.898-0.403-0.898-0.898v-19.509l12.776 12.775c0.425 0.425 0.989 0.659 1.59 0.659s1.166-0.234 1.59-0.659l12.776-12.776v19.51c0 0.496-0.403 0.898-0.898 0.898z"></path>
</svg>
