<?xml version="1.0" encoding="utf-8"?>
<!-- Generated by IcoMoon.io -->
<!DOCTYPE svg PUBLIC "-//W3C//DTD SVG 1.1//EN" "http://www.w3.org/Graphics/SVG/1.1/DTD/svg11.dtd">
<svg version="1.1" xmlns="http://www.w3.org/2000/svg" xmlns:xlink="http://www.w3.org/1999/xlink" width="32" height="32" viewBox="0 0 32 32">
<path fill="#444" d="M16.049 0.258c-8.431 0-15.303 6.872-15.303 15.303s6.872 15.303 15.303 15.303c8.431 0.049 15.303-6.823 15.303-15.254s-6.872-15.352-15.303-15.352zM16.049 29.695c-7.749 0-14.085-6.336-14.085-14.085s6.336-14.085 14.085-14.085 14.085 6.336 14.085 14.085c0 7.749-6.336 14.085-14.085 14.085z"></path>
<path fill="#444" d="M20.435 10.688h-4.63c-1.56 0-2.875 1.023-3.314 2.437h-0.975c-1.901 0-3.46 1.56-3.46 3.46s1.56 3.46 3.46 3.46h4.63c1.56 0 2.875-1.023 3.314-2.437h0.975c1.901 0 3.46-1.56 3.46-3.46s-1.56-3.46-3.46-3.46zM16.146 18.827h-4.63c-1.218 0-2.242-1.023-2.242-2.242s1.023-2.242 2.242-2.242h0.828c0.097 1.803 1.608 3.217 3.46 3.217h2.339c-0.39 0.731-1.121 1.267-1.998 1.267zM13.612 14.343h2.583c1.17 0 2.096 0.877 2.193 1.998h-2.583c-1.17 0-2.096-0.877-2.193-1.998zM20.435 16.341h-0.828c-0.097-1.803-1.608-3.217-3.46-3.217h-2.339c0.39-0.731 1.121-1.218 1.998-1.218h4.63c1.218 0 2.242 1.023 2.242 2.242s-1.023 2.193-2.242 2.193z"></path>
</svg>
