<?xml version="1.0" encoding="utf-8"?>
<!-- Generated by IcoMoon.io -->
<!DOCTYPE svg PUBLIC "-//W3C//DTD SVG 1.1//EN" "http://www.w3.org/Graphics/SVG/1.1/DTD/svg11.dtd">
<svg version="1.1" xmlns="http://www.w3.org/2000/svg" xmlns:xlink="http://www.w3.org/1999/xlink" width="32" height="32" viewBox="0 0 32 32">
<path fill="#444" d="M16 1.313c-4.294 0-7.464 3.879-7.464 7.945v3.612h-2.89v17.817h20.707v-17.817h-2.89v-3.612c0-4.066-3.17-7.945-7.464-7.945zM16 2.757c3.411 0 6.020 3.189 6.020 6.501v3.612h-12.039v-3.612c0-3.312 2.609-6.501 6.020-6.501zM7.091 14.314h17.818v14.929h-17.818v-14.929zM16 18.648c-0.656 0-1.204 0.549-1.204 1.204 0 0.387 0.191 0.736 0.481 0.957v3.166c0 0.399 0.324 0.723 0.723 0.723s0.723-0.324 0.723-0.723v-3.166c0.291-0.221 0.481-0.57 0.481-0.957 0-0.656-0.548-1.204-1.204-1.204z"></path>
</svg>
