<?xml version="1.0" encoding="utf-8"?>
<!-- Generated by IcoMoon.io -->
<!DOCTYPE svg PUBLIC "-//W3C//DTD SVG 1.1//EN" "http://www.w3.org/Graphics/SVG/1.1/DTD/svg11.dtd">
<svg version="1.1" xmlns="http://www.w3.org/2000/svg" xmlns:xlink="http://www.w3.org/1999/xlink" width="30" height="32" viewBox="0 0 30 32">
<path fill="#444" d="M15.084 30.006c-7.305 0-13.247-5.942-13.247-13.246 0-4.973 2.745-9.482 7.164-11.771 0.276-0.143 0.616-0.035 0.759 0.241s0.035 0.616-0.241 0.759c-4.044 2.094-6.556 6.222-6.556 10.772 0 6.683 5.438 12.12 12.121 12.12s12.119-5.437 12.119-12.12c0-4.468-2.447-8.56-6.387-10.681-0.273-0.147-0.376-0.489-0.229-0.763s0.489-0.377 0.763-0.229c4.305 2.318 6.979 6.79 6.979 11.673 0 7.303-5.941 13.245-13.245 13.245z"></path>
<path fill="#444" d="M15.084 17.61c-0.311 0-0.563-0.252-0.563-0.563v-14.49c0-0.311 0.252-0.563 0.563-0.563s0.563 0.253 0.563 0.563v14.49c0 0.311-0.252 0.563-0.563 0.563z"></path>
</svg>
