<?xml version="1.0" encoding="utf-8"?>
<!-- Generated by IcoMoon.io -->
<!DOCTYPE svg PUBLIC "-//W3C//DTD SVG 1.1//EN" "http://www.w3.org/Graphics/SVG/1.1/DTD/svg11.dtd">
<svg version="1.1" xmlns="http://www.w3.org/2000/svg" xmlns:xlink="http://www.w3.org/1999/xlink" width="32" height="32" viewBox="0 0 32 32">
<path fill="#444" d="M18.617 1c-6.729 0-12.201 5.473-12.201 12.201 0 3.069 1.148 5.87 3.023 8.015l-7.946 7.943c-0.421 0.421-0.421 1.105 0 1.526 0.211 0.211 0.488 0.315 0.764 0.315s0.552-0.106 0.764-0.315l7.974-7.969c2.091 1.677 4.739 2.689 7.622 2.689 6.731 0 12.205-5.475 12.205-12.201 0-6.731-5.475-12.203-12.205-12.203zM18.617 23.246c-5.537 0-10.043-4.506-10.043-10.043s4.506-10.043 10.043-10.043c5.54 0 10.047 4.506 10.047 10.043s-4.508 10.043-10.047 10.043z"></path>
</svg>
