<?xml version="1.0" encoding="utf-8"?>
<!-- Generated by IcoMoon.io -->
<!DOCTYPE svg PUBLIC "-//W3C//DTD SVG 1.1//EN" "http://www.w3.org/Graphics/SVG/1.1/DTD/svg11.dtd">
<svg version="1.1" xmlns="http://www.w3.org/2000/svg" xmlns:xlink="http://www.w3.org/1999/xlink" width="39" height="32" viewBox="0 0 39 32">
<path fill="#444" d="M22.031 1.268c-6.484 0-11.758 5.275-11.758 11.758 0 3.103 1.21 5.928 3.18 8.032l-8.226 8.222c-0.252 0.252-0.252 0.66 0 0.912 0.126 0.126 0.291 0.189 0.456 0.189s0.33-0.063 0.456-0.189l8.244-8.239c0.001-0.001 0.001-0.002 0.002-0.003 2.058 1.767 4.729 2.838 7.647 2.838 6.486 0 11.763-5.276 11.763-11.761s-5.278-11.759-11.764-11.759zM22.031 23.499c-5.773 0-10.469-4.698-10.469-10.472 0-5.773 4.696-10.469 10.469-10.469 5.775 0 10.474 4.697 10.474 10.469 0 5.774-4.699 10.472-10.474 10.472z"></path>
</svg>
