<?xml version="1.0" encoding="utf-8"?>
<!-- Generated by IcoMoon.io -->
<!DOCTYPE svg PUBLIC "-//W3C//DTD SVG 1.1//EN" "http://www.w3.org/Graphics/SVG/1.1/DTD/svg11.dtd">
<svg version="1.1" xmlns="http://www.w3.org/2000/svg" xmlns:xlink="http://www.w3.org/1999/xlink" width="32" height="32" viewBox="0 0 32 32">
<path fill="#444" d="M15.57 1c0.287 0 0.574 0 0.86 0 0.067 0.013 0.134 0.035 0.202 0.037 1.081 0.031 2.146 0.185 3.185 0.479 4.784 1.359 8.148 4.334 10.084 8.913 0.56 1.326 0.889 2.717 1.007 4.155 0.027 0.329 0.062 0.657 0.092 0.986 0 0.476-0.032 0.931-0.037 0.991-0.036 0.426-0.061 0.854-0.105 1.279-0.135 1.315-0.493 2.574-0.972 3.8-0.385 0.985-0.883 1.894-1.728 2.575-1.312 1.056-2.796 1.435-4.433 1.063-1.722-0.392-2.93-1.438-3.638-3.059-0.020-0.046-0.055-0.087-0.084-0.131-3.286 2.539-7.474 1.964-9.988-0.342-2.774-2.546-3.309-6.63-1.368-9.755 0.937-1.507 2.239-2.599 3.91-3.188 2.516-0.886 4.9-0.537 7.128 0.949 0.019-0.058 0.031-0.086 0.037-0.116 0.194-1.026 1.31-1.605 2.25-1.158 0.665 0.317 0.952 0.874 0.952 1.594 0.001 3.344 0 6.687 0.002 10.030 0 0.173 0.016 0.348 0.044 0.519 0.13 0.773 0.82 1.437 1.585 1.536 0.853 0.111 1.668-0.312 2.018-1.044 0.518-1.084 0.866-2.216 1.046-3.408 0.207-1.383 0.172-2.756-0.121-4.114-0.55-2.55-1.8-4.703-3.768-6.425-2.059-1.802-4.466-2.754-7.191-2.909-0.946-0.053-1.884 0.032-2.814 0.218-2.715 0.542-4.963 1.884-6.737 3.994-1.707 2.029-2.602 4.395-2.73 7.044-0.053 1.083 0.058 2.152 0.319 3.206 0.79 3.191 2.601 5.641 5.396 7.354 1.859 1.138 3.9 1.665 6.078 1.677 0.628 0.004 1.213 0.412 1.449 1.017 0.244 0.628 0.116 1.194-0.324 1.698-0.275 0.314-0.646 0.436-1.033 0.53-0.191 0-0.382 0-0.574 0-0.051-0.013-0.103-0.035-0.155-0.036-1.011-0.018-2.009-0.153-2.982-0.412-4.63-1.228-7.992-4.002-10.054-8.328-0.724-1.519-1.147-3.128-1.287-4.808-0.027-0.329-0.062-0.657-0.092-0.986 0-0.287 0.030-0.963 0.037-1.015 0.1-0.825 0.146-1.66 0.308-2.472 0.555-2.781 1.85-5.192 3.792-7.251 1.508-1.599 3.293-2.804 5.336-3.618 1.314-0.524 2.675-0.864 4.088-0.981 0.336-0.028 0.672-0.062 1.009-0.094zM19.679 16.068c0.029-2.421-1.933-4.504-4.469-4.504-2.59 0-4.417 2.116-4.48 4.349-0.071 2.476 1.93 4.621 4.484 4.612 2.532-0.010 4.469-2.068 4.465-4.457z"></path>
</svg>
