<?xml version="1.0" encoding="utf-8"?>
<!-- Generated by IcoMoon.io -->
<!DOCTYPE svg PUBLIC "-//W3C//DTD SVG 1.1//EN" "http://www.w3.org/Graphics/SVG/1.1/DTD/svg11.dtd">
<svg version="1.1" xmlns="http://www.w3.org/2000/svg" xmlns:xlink="http://www.w3.org/1999/xlink" width="32" height="32" viewBox="0 0 32 32">
<path fill="#444" d="M5.157 8.604c-0.743 0-1.345 0.602-1.345 1.345s0.602 1.345 1.345 1.345h21.686c0.743 0 1.345-0.602 1.345-1.345s-0.602-1.345-1.345-1.345h-21.686zM5.157 14.655c-0.743 0-1.345 0.602-1.345 1.345s0.602 1.345 1.345 1.345h21.686c0.743 0 1.345-0.602 1.345-1.345s-0.602-1.345-1.345-1.345h-21.686zM5.157 20.707c-0.743 0-1.345 0.602-1.345 1.345s0.602 1.345 1.345 1.345h21.686c0.743 0 1.345-0.602 1.345-1.345s-0.602-1.345-1.345-1.345h-21.686z"></path>
</svg>
