<?xml version="1.0" encoding="utf-8"?>
<!-- Generated by IcoMoon.io -->
<!DOCTYPE svg PUBLIC "-//W3C//DTD SVG 1.1//EN" "http://www.w3.org/Graphics/SVG/1.1/DTD/svg11.dtd">
<svg version="1.1" xmlns="http://www.w3.org/2000/svg" xmlns:xlink="http://www.w3.org/1999/xlink" width="30" height="32" viewBox="0 0 30 32">
<path fill="#444" d="M4.819 30.565c-0.128 0-0.256-0.039-0.365-0.115-0.204-0.142-0.309-0.391-0.266-0.636 0.006-0.034 0.573-3.308 0.991-6.63-2.788-2.381-4.381-5.678-4.381-9.1 0-6.974 6.409-12.649 14.286-12.649 7.876 0 14.285 5.675 14.285 12.649 0 6.977-6.408 12.652-14.285 12.652-0.973 0-1.975-0.096-2.983-0.287-2.348 1.34-6.912 4.001-6.959 4.028-0.1 0.058-0.211 0.087-0.323 0.087zM15.084 2.718c-7.171 0-13.005 5.099-13.005 11.368 0 3.19 1.485 6.15 4.182 8.334 0.172 0.138 0.259 0.356 0.233 0.576-0.265 2.156-0.601 4.339-0.82 5.69 1.593-0.926 4.415-2.564 5.999-3.464 0.135-0.077 0.292-0.102 0.444-0.072 1.004 0.204 2.002 0.309 2.966 0.309 7.17 0 13.004-5.1 13.004-11.371 0-6.268-5.833-11.368-13.003-11.368z"></path>
</svg>
