<?xml version="1.0" encoding="utf-8"?>
<!-- Generated by IcoMoon.io -->
<!DOCTYPE svg PUBLIC "-//W3C//DTD SVG 1.1//EN" "http://www.w3.org/Graphics/SVG/1.1/DTD/svg11.dtd">
<svg version="1.1" xmlns="http://www.w3.org/2000/svg" xmlns:xlink="http://www.w3.org/1999/xlink" width="32" height="32" viewBox="0 0 32 32">
<path fill="#444" d="M23.276 1.758h-14.552c-1.178 0-2.136 0.958-2.136 2.136v24.212c0 1.178 0.958 2.136 2.136 2.136h14.552c1.178 0 2.136-0.959 2.136-2.136v-24.212c0-1.178-0.958-2.136-2.136-2.136zM7.832 6.346h16.336v16.527h-16.336v-16.527zM8.724 3.002h14.552c0.491 0 0.892 0.4 0.892 0.892v1.208h-16.336v-1.208c0-0.492 0.4-0.892 0.892-0.892zM23.276 28.998h-14.552c-0.492 0-0.892-0.4-0.892-0.892v-3.988h16.336v3.988c0 0.492-0.4 0.892-0.892 0.892z"></path>
<path fill="#444" d="M17.241 26.496c0 0.791-0.642 1.433-1.433 1.433s-1.433-0.642-1.433-1.433c0-0.791 0.642-1.433 1.433-1.433s1.433 0.642 1.433 1.433z"></path>
</svg>
