<?xml version="1.0" encoding="utf-8"?>
<!-- Generated by IcoMoon.io -->
<!DOCTYPE svg PUBLIC "-//W3C//DTD SVG 1.1//EN" "http://www.w3.org/Graphics/SVG/1.1/DTD/svg11.dtd">
<svg version="1.1" xmlns="http://www.w3.org/2000/svg" xmlns:xlink="http://www.w3.org/1999/xlink" width="32" height="32" viewBox="0 0 32 32">
<path fill="#444" d="M16.146 0.795c-8.431 0-15.303 6.872-15.303 15.303s6.872 15.303 15.303 15.303c8.431 0 15.303-6.872 15.303-15.303s-6.872-15.303-15.303-15.303zM16.146 30.182c-7.749 0-14.085-6.336-14.085-14.085s6.336-14.085 14.085-14.085c7.749 0 14.085 6.336 14.085 14.085s-6.336 14.085-14.085 14.085z"></path>
<path fill="#444" d="M19.996 8.738c-0.097 0-0.195 0-0.292 0l-5.946 0.828c-1.121 0.146-1.998 1.17-1.998 2.339v5.556c-0.195 0-0.439 0.049-0.634 0.097-1.852 0.39-3.119 2.047-2.778 3.655 0.292 1.365 1.56 2.291 3.168 2.291 0.292 0 0.585-0.049 0.877-0.097 1.608-0.341 2.778-1.608 2.827-3.022 0 0 0-0.049 0-0.049v-0.244c0 0 0 0.049 0 0.049 0.292 1.365 1.56 2.291 3.168 2.291 0.292 0 0.585-0.049 0.877-0.097 1.608-0.341 2.778-1.608 2.827-3.022 0 0 0-0.049 0-0.049v-8.48c0-0.536-0.195-1.072-0.585-1.462-0.439-0.39-0.975-0.585-1.511-0.585zM15.172 19.119v-5.166l3.411-0.536v2.973c-0.195 0-0.439 0.049-0.634 0.097-1.462 0.341-2.534 1.413-2.778 2.632zM20.825 16.439v0 2.827c-0.049 0.877-0.828 1.657-1.901 1.852-0.195 0.049-0.39 0.049-0.585 0.049-0.975 0-1.803-0.536-1.949-1.316-0.195-0.975 0.634-1.949 1.852-2.193 0.195-0.049 0.39-0.049 0.585-0.049s0.439 0.049 0.634 0.049c0 0 0.049 0 0.049 0 0.146 0 0.292-0.146 0.292-0.292v-4.386c0-0.487-0.341-0.828-0.828-0.828-0.049 0-0.097 0-0.146 0l-3.948 0.585c-0.536 0.097-0.975 0.585-0.975 1.121v6.482c-0.049 0.877-0.828 1.657-1.901 1.852-0.195 0.049-0.39 0.049-0.585 0.049-0.975 0-1.803-0.536-1.949-1.316-0.195-0.975 0.634-1.949 1.852-2.193 0.195-0.049 0.39-0.049 0.585-0.049 0.244 0 0.439 0.049 0.682 0.097 0 0 0.049 0 0.049 0 0.146 0 0.244-0.097 0.244-0.244v-6.628c0-0.536 0.439-1.023 0.975-1.121l5.946-0.828c0.049 0 0.097 0 0.146 0 0.487 0 0.828 0.341 0.828 0.828l0.049 5.653z"></path>
</svg>
