<?xml version="1.0" encoding="utf-8"?>
<!-- Generated by IcoMoon.io -->
<!DOCTYPE svg PUBLIC "-//W3C//DTD SVG 1.1//EN" "http://www.w3.org/Graphics/SVG/1.1/DTD/svg11.dtd">
<svg version="1.1" xmlns="http://www.w3.org/2000/svg" xmlns:xlink="http://www.w3.org/1999/xlink" width="32" height="32" viewBox="0 0 32 32">
<path fill="#444" d="M26.4 5.229c-0.007-0.008-0.010-0.019-0.018-0.027-0.010-0.010-0.023-0.014-0.034-0.022-2.692-2.576-6.337-4.163-10.349-4.163-8.262 0-14.984 6.722-14.984 14.984 0 4.015 1.591 7.664 4.171 10.357 0.007 0.007 0.009 0.017 0.016 0.024 0.006 0.006 0.013 0.007 0.019 0.013 2.727 2.826 6.549 4.59 10.778 4.59 8.262 0 14.984-6.722 14.984-14.984 0.001-4.226-1.76-8.045-4.583-10.771zM16 1.987c3.583 0 6.856 1.354 9.336 3.575l-19.775 19.775c-2.221-2.48-3.575-5.753-3.575-9.336 0-7.727 6.286-14.013 14.013-14.013zM16 30.013c-3.795 0-7.24-1.518-9.766-3.977l19.802-19.802c2.459 2.526 3.977 5.971 3.977 9.766 0 7.727-6.286 14.013-14.013 14.013z"></path>
</svg>
