<?xml version="1.0" encoding="utf-8"?>
<!-- Generated by IcoMoon.io -->
<!DOCTYPE svg PUBLIC "-//W3C//DTD SVG 1.1//EN" "http://www.w3.org/Graphics/SVG/1.1/DTD/svg11.dtd">
<svg version="1.1" xmlns="http://www.w3.org/2000/svg" xmlns:xlink="http://www.w3.org/1999/xlink" width="32" height="32" viewBox="0 0 32 32">
<path fill="#444" d="M16 7c-8.928 0-15.781 8.344-15.781 8.344-0.152 0.175-0.245 0.405-0.245 0.656s0.093 0.482 0.246 0.657c-0.001-0.001 6.852 8.343 15.78 8.343s15.781-8.344 15.781-8.344c0.152-0.175 0.245-0.405 0.245-0.656s-0.093-0.482-0.246-0.657c0.001 0.001-6.852-8.343-15.78-8.343zM16 9c6.992 0 12.512 5.913 13.5 7-0.988 1.087-6.508 7-13.5 7s-12.512-5.913-13.5-7c0.988-1.087 6.508-7 13.5-7z"></path>
<path fill="#444" d="M13.826 14.538c-1.201 0-2.174-0.995-2.174-2.222s0.974-2.223 2.174-2.223c1.201 0 2.174 0.995 2.174 2.223s-0.973 2.222-2.174 2.222zM15.999 7.872c-3.6 0-6.522 2.986-6.522 6.667 0 3.68 2.922 6.667 6.522 6.667s6.522-2.987 6.522-6.667c0-3.681-2.922-6.667-6.522-6.667z"></path>
</svg>
