<?xml version="1.0" encoding="utf-8"?>
<!-- Generated by IcoMoon.io -->
<!DOCTYPE svg PUBLIC "-//W3C//DTD SVG 1.1//EN" "http://www.w3.org/Graphics/SVG/1.1/DTD/svg11.dtd">
<svg version="1.1" xmlns="http://www.w3.org/2000/svg" xmlns:xlink="http://www.w3.org/1999/xlink" width="32" height="32" viewBox="0 0 32 32">
<path fill="#444" d="M1.453 1c-0.255 0.025-0.453 0.238-0.453 0.498 0 0.001 0 0.002 0 0.002v29c0 0.276 0.224 0.5 0.5 0.5h29c0.276-0 0.5-0.224 0.5-0.5v-29c-0-0.276-0.224-0.5-0.5-0.5h-29c-0.007-0-0.015-0.001-0.023-0.001s-0.016 0-0.025 0.001zM2 2h28v28h-28v-28zM9.5 7v1h17v-1h-17zM5.5 11v1h21v-1h-21zM5.5 15v1h21v-1h-21zM5.5 19v1h21v-1h-21zM5.5 23v1h17v-1h-17z"></path>
</svg>
