<?xml version="1.0" encoding="utf-8"?>
<!-- Generated by IcoMoon.io -->
<!DOCTYPE svg PUBLIC "-//W3C//DTD SVG 1.1//EN" "http://www.w3.org/Graphics/SVG/1.1/DTD/svg11.dtd">
<svg version="1.1" xmlns="http://www.w3.org/2000/svg" xmlns:xlink="http://www.w3.org/1999/xlink" width="32" height="32" viewBox="0 0 32 32">
<path fill="#444" d="M30.392 21.488c0-0.010 0.006-0.019 0.006-0.028v-19.265c0-0.251-0.204-0.455-0.455-0.455h-27.885c-0.251 0-0.455 0.204-0.455 0.455v27.611c0 0.251 0.204 0.455 0.455 0.455h19.173c0.058 0 0.115-0.011 0.169-0.033s0.103-0.053 0.146-0.094l8.712-8.346c0.041-0.039 0.070-0.085 0.093-0.135 0.007-0.014 0.011-0.028 0.016-0.043 0.014-0.040 0.022-0.081 0.025-0.122zM2.512 2.65h26.976v18.355h-8.257c-0.251 0-0.455 0.204-0.455 0.455v7.891h-18.263v-26.701zM23.265 27.226l-1.58 1.513v-6.825h7.125l-5.545 5.312z"></path>
</svg>
