<?xml version="1.0" encoding="utf-8"?>
<!-- Generated by IcoMoon.io -->
<!DOCTYPE svg PUBLIC "-//W3C//DTD SVG 1.1//EN" "http://www.w3.org/Graphics/SVG/1.1/DTD/svg11.dtd">
<svg version="1.1" xmlns="http://www.w3.org/2000/svg" xmlns:xlink="http://www.w3.org/1999/xlink" width="32" height="32" viewBox="0 0 32 32">
<path fill="#444" d="M27.825 1c-0.812 0-1.624 0.31-2.244 0.93l-0.538 0.537 4.49 4.49c-0.003 0.003 0.537-0.538 0.537-0.538 1.24-1.24 1.24-3.25 0.001-4.489-0.621-0.62-1.433-0.93-2.246-0.93zM24.132 3.628c-0.015 0-0.028 0.001-0.041 0.003-0.16 0.006-0.321 0.086-0.435 0.21l-21.147 21.166c-0.106 0.096-0.18 0.226-0.204 0.373l-1.283 4.804c-0.013 0.049-0.021 0.105-0.021 0.163 0 0.36 0.292 0.652 0.652 0.652 0.058 0 0.114-0.008 0.168-0.022l4.887-1.304c0.143-0.046 0.262-0.137 0.342-0.255l21.118-21.083c0.122-0.119 0.197-0.285 0.197-0.469 0-0.362-0.294-0.656-0.656-0.656-0.179 0-0.341 0.071-0.459 0.187l-21.058 21.055-2.646-2.645 0.002-0.006 21.052-21.053c0.123-0.119 0.199-0.285 0.199-0.469 0-0.36-0.292-0.652-0.652-0.652-0.006 0-0.011 0-0.017 0z"></path>
</svg>
