<?xml version="1.0" encoding="utf-8"?>
<!-- Generated by IcoMoon.io -->
<!DOCTYPE svg PUBLIC "-//W3C//DTD SVG 1.1//EN" "http://www.w3.org/Graphics/SVG/1.1/DTD/svg11.dtd">
<svg version="1.1" xmlns="http://www.w3.org/2000/svg" xmlns:xlink="http://www.w3.org/1999/xlink" width="32" height="32" viewBox="0 0 32 32">
<path fill="#444" d="M15.879 6.866c-2.562 0-4.586 2.523-4.586 5.558 0 2.066 0.938 3.899 2.345 4.859v1.753l-4.144 1.572c-1.15 0.421-1.914 1.554-1.914 2.801v1.723h16.829v-1.723c0-1.253-0.788-2.38-1.935-2.801l-4.124-1.583v-1.914c1.273-0.997 2.104-2.739 2.104-4.688 0-3.035-2.013-5.558-4.575-5.558zM15.879 7.556c2.126 0 3.902 2.144 3.902 4.869s-1.776 4.879-3.902 4.879c-2.126 0-3.913-2.154-3.913-4.879s1.788-4.869 3.913-4.869zM6.791 11.412c-1.957 0-3.482 1.92-3.482 4.211 0 1.451 0.612 2.752 1.557 3.512v1.324l-2.997 1.152c-0.886 0.324-1.494 1.185-1.494 2.154v1.368h5.807c0.005 0 0.010 0 0.015 0 0.186 0 0.337-0.154 0.337-0.345s-0.151-0.345-0.337-0.345c-0.005 0-0.011 0-0.016 0l-5.132-0v-0.679c0-0.667 0.435-1.282 1.052-1.508l3.218-1.239 0.221-0.075v-1.388c0.387 0.179 0.808 0.278 1.251 0.278 0.377 0 0.737-0.072 1.073-0.203v0.375c-0 0.005-0 0.010-0 0.016 0 0.19 0.151 0.345 0.337 0.345s0.337-0.154 0.337-0.345c0-0.006-0-0.011-0-0.016l0-0.736c1.046-0.734 1.736-2.106 1.736-3.647 0-2.292-1.525-4.211-3.482-4.211zM25.209 11.412c-1.957 0-3.482 1.92-3.482 4.211 0 1.54 0.689 2.912 1.735 3.647v0.737c0 0.19 0.151 0.345 0.337 0.345s0.337-0.154 0.337-0.345v-0.375c0.337 0.131 0.697 0.203 1.073 0.203 0.444 0 0.865-0.099 1.251-0.278v1.388l0.221 0.075 3.218 1.239c0.617 0.226 1.052 0.841 1.052 1.508v0.679h-5.133c-0.005-0-0.010-0-0.015-0-0.186 0-0.337 0.154-0.337 0.345s0.151 0.345 0.337 0.345c0.005 0 0.011-0 0.016-0l5.806 0v-1.368c0-0.968-0.607-1.829-1.494-2.154l-2.998-1.152v-1.323c0.946-0.76 1.557-2.062 1.557-3.513 0-2.292-1.524-4.211-3.481-4.211zM6.791 12.102c1.52 0 2.808 1.54 2.808 3.522 0 1.4-0.643 2.58-1.557 3.152-0.044 0.023-0.080 0.055-0.109 0.092-0.299 0.155-0.711 0.278-1.142 0.278-0.481 0-0.938-0.155-1.339-0.428-0.047-0.052-0.109-0.089-0.178-0.104-0.745-0.595-1.291-1.699-1.291-2.989 0-1.981 1.288-3.522 2.808-3.522zM25.209 12.102c1.52 0 2.808 1.54 2.808 3.522 0 1.291-0.547 2.394-1.348 3.007-0.067 0.029-0.122 0.076-0.159 0.137-0.365 0.224-0.821 0.378-1.301 0.378-0.435 0-0.851-0.126-1.223-0.352-0.001-0.001-0.003-0.002-0.004-0.003-0.035-0.024-0.077-0.041-0.122-0.049-0.818-0.541-1.46-1.72-1.46-3.117 0-1.981 1.289-3.522 2.809-3.522zM17.678 17.548v1.964l0.221 0.086 4.343 1.659c0.879 0.322 1.494 1.202 1.494 2.154v1.035h-15.483v-1.035c0-0.958 0.596-1.833 1.472-2.154l4.587-1.745v-1.851c0.487 0.215 1.014 0.332 1.567 0.332 0.642 0 1.249-0.159 1.799-0.445z"></path>
</svg>
