<?xml version="1.0" encoding="utf-8"?>
<!-- Generated by IcoMoon.io -->
<!DOCTYPE svg PUBLIC "-//W3C//DTD SVG 1.1//EN" "http://www.w3.org/Graphics/SVG/1.1/DTD/svg11.dtd">
<svg version="1.1" xmlns="http://www.w3.org/2000/svg" xmlns:xlink="http://www.w3.org/1999/xlink" width="32" height="32" viewBox="0 0 32 32">
<path fill="#444" d="M1 4.5v23h30v-23h-30zM2 5.5h28v21h-0.698l-4.708-9.203c-0.442-0.885-1.339-1.453-2.328-1.453-0.93 0-1.797 0.495-2.266 1.297l-3.453 5.922c-0.257-0.349-0.474-0.704-1.234-1.406-1.071-0.989-2.583-2.031-4.359-2.031-0.97 0-1.836 0.512-2.594 1.203s-1.422 1.587-1.984 2.469c-0.838 1.315-1.451 2.623-1.709 3.203h-2.666v-21zM12.844 8.281c-1.633 0-2.96 1.109-3.422 2.594-0.122-0.021-0.23-0.078-0.359-0.078-1.315 0-2.391 1.092-2.391 2.406 0 1.298 1.078 2.378 2.391 2.297 0.016-0.001 0.031 0.001 0.047 0h3.719c0.005 0 0.010-0 0.016 0 2.016 0.091 3.656-1.556 3.656-3.563 0-2.011-1.645-3.656-3.656-3.656zM12.844 9.281c1.47 0 2.656 1.186 2.656 2.656 0 1.471-1.167 2.635-2.625 2.563h-3.844c-0.755 0.063-1.359-0.523-1.359-1.297s0.617-1.406 1.391-1.406c0.173 0 0.337 0.046 0.5 0.109l0.578 0.219 0.094-0.609c0.202-1.265 1.284-2.234 2.609-2.234zM22.266 16.844c0.612 0 1.164 0.343 1.438 0.891-0 0.002-0 0.005-0 0.008s0 0.006 0 0.008l4.483 8.75h-22.415c0.298-0.646 0.802-1.661 1.447-2.672 0.533-0.836 1.158-1.653 1.813-2.25s1.316-0.953 1.922-0.953c1.376 0 2.71 0.863 3.688 1.766s1.578 1.797 1.578 1.797c0.091 0.136 0.244 0.224 0.417 0.224 0.18 0 0.337-0.095 0.426-0.237l3.798-6.518c0.29-0.497 0.831-0.813 1.406-0.813z"></path>
</svg>
