<?xml version="1.0" encoding="utf-8"?>
<!-- Generated by IcoMoon.io -->
<!DOCTYPE svg PUBLIC "-//W3C//DTD SVG 1.1//EN" "http://www.w3.org/Graphics/SVG/1.1/DTD/svg11.dtd">
<svg version="1.1" xmlns="http://www.w3.org/2000/svg" xmlns:xlink="http://www.w3.org/1999/xlink" width="32" height="32" viewBox="0 0 32 32">
<path fill="#444" d="M1 0.968v25.862h25.862v-25.862h-25.862zM2.034 2.002h23.793v23.793h-2.391l-3.832-10.183c-0.072-0.204-0.264-0.348-0.489-0.348-0.033 0-0.065 0.003-0.096 0.009-0.147 0.034-0.27 0.13-0.339 0.259l-4.829 7.225-2.813-3.395c-0.095-0.11-0.236-0.179-0.392-0.179-0.191 0-0.358 0.104-0.448 0.258l-3.791 6.354h-4.373v-23.793zM27.896 4.087l-0.016 23.777h-23.762v1.034h24.812v-24.812h-1.034zM29.966 7.175l-0.017 22.759h-22.742v1.034l23.776 0.064v-0.064h0.017v-23.793h-1.034zM8.694 10.052c-1.36 0-2.474 1.113-2.474 2.473s1.114 2.474 2.474 2.474c1.361 0 2.473-1.114 2.473-2.474s-1.112-2.473-2.473-2.473zM8.694 11.086c0.802 0 1.438 0.638 1.438 1.438s-0.636 1.438-1.438 1.438c-0.8 0-1.438-0.638-1.438-1.438s0.638-1.438 1.438-1.438zM18.99 16.921l3.346 8.874h-14.741l3.12-5.204 2.796 3.361c0.095 0.112 0.237 0.182 0.394 0.182 0.179 0 0.336-0.090 0.429-0.228l4.656-6.985z"></path>
</svg>
