<?xml version="1.0" encoding="utf-8"?>
<!-- Generated by IcoMoon.io -->
<!DOCTYPE svg PUBLIC "-//W3C//DTD SVG 1.1//EN" "http://www.w3.org/Graphics/SVG/1.1/DTD/svg11.dtd">
<svg version="1.1" xmlns="http://www.w3.org/2000/svg" xmlns:xlink="http://www.w3.org/1999/xlink" width="32" height="32" viewBox="0 0 32 32">
<path fill="#444" d="M15.985 2.87c-0.438 0.014-0.787 0.372-0.787 0.812 0 0.009 0 0.018 0.001 0.027l-0 11.681h-10.895c-0.007-0-0.015-0-0.023-0-0.449 0-0.813 0.364-0.813 0.813s0.364 0.813 0.813 0.813c0.008 0 0.016-0 0.024-0l10.894 0v11.275c-0 0.007-0 0.015-0 0.023 0 0.449 0.364 0.813 0.813 0.813s0.813-0.364 0.813-0.813c0-0.008-0-0.016-0-0.024l0-11.274h12.062c0.007 0 0.015 0 0.023 0 0.449 0 0.813-0.364 0.813-0.813s-0.364-0.813-0.813-0.813c-0.008 0-0.016 0-0.024 0l-12.061-0v-11.682c0-0.008 0-0.016 0-0.025 0-0.449-0.364-0.813-0.813-0.813-0.009 0-0.018 0-0.027 0.001z"></path>
</svg>
