<?xml version="1.0" encoding="utf-8"?>
<!-- Generated by IcoMoon.io -->
<!DOCTYPE svg PUBLIC "-//W3C//DTD SVG 1.1//EN" "http://www.w3.org/Graphics/SVG/1.1/DTD/svg11.dtd">
<svg version="1.1" xmlns="http://www.w3.org/2000/svg" xmlns:xlink="http://www.w3.org/1999/xlink" width="32" height="32" viewBox="0 0 32 32">
<path fill="#444" d="M16.084 2.875c-0.902 0.014-1.627 0.749-1.627 1.653 0 0.009 0 0.018 0 0.027l-0 9.592h-9.916c-0.913 0-1.653 0.74-1.653 1.653s0.74 1.653 1.653 1.653h9.916v10.020c0 0.913 0.74 1.653 1.653 1.653s1.653-0.74 1.653-1.653v-10.020h9.696c0.913 0 1.653-0.74 1.653-1.653s-0.74-1.653-1.653-1.653h-9.696v-9.593c0-0.008 0-0.017 0-0.026 0-0.913-0.74-1.653-1.653-1.653-0.009 0-0.018 0-0.027 0z"></path>
</svg>
