<?xml version="1.0" encoding="utf-8"?>
<!-- Generated by IcoMoon.io -->
<!DOCTYPE svg PUBLIC "-//W3C//DTD SVG 1.1//EN" "http://www.w3.org/Graphics/SVG/1.1/DTD/svg11.dtd">
<svg version="1.1" xmlns="http://www.w3.org/2000/svg" xmlns:xlink="http://www.w3.org/1999/xlink" width="32" height="32" viewBox="0 0 32 32">
<path fill="#444" d="M16 1c-8.271 0-15 6.75-15 15 0 8.313 6.729 15 15 15s15-6.688 15-15c0-8.25-6.729-15-15-15zM16 2.25c7.582 0 13.75 6.188 13.75 13.75 0 7.626-6.168 13.75-13.75 13.75s-13.75-6.124-13.75-13.75c0-7.562 6.168-13.75 13.75-13.75zM16 8.5c-2.412 0-4.375 2.001-4.375 4.375 0 0.375 0.28 0.625 0.625 0.625s0.625-0.25 0.625-0.625c0-1.688 1.402-3.125 3.125-3.125s3.125 1.438 3.125 3.125c0 1.75-1.402 3.125-3.125 3.125-0.345 0-0.625 0.313-0.625 0.625v3.75c0 0.375 0.28 0.625 0.625 0.625s0.625-0.25 0.625-0.625v-3.125c2.117-0.313 3.75-2.125 3.75-4.375 0-2.374-1.962-4.375-4.375-4.375zM16 22.25c-0.691 0-1.25 0.563-1.25 1.25 0 0.75 0.559 1.25 1.25 1.25s1.25-0.5 1.25-1.25c0-0.688-0.56-1.25-1.25-1.25z"></path>
</svg>
