<?xml version="1.0" encoding="utf-8"?>
<!-- Generated by IcoMoon.io -->
<!DOCTYPE svg PUBLIC "-//W3C//DTD SVG 1.1//EN" "http://www.w3.org/Graphics/SVG/1.1/DTD/svg11.dtd">
<svg version="1.1" xmlns="http://www.w3.org/2000/svg" xmlns:xlink="http://www.w3.org/1999/xlink" width="32" height="32" viewBox="0 0 32 32">
<path fill="#444" d="M14.1 9.441c-0.26-0.203-0.635-0.157-0.838 0.103l-2.763 3.534c-0.169 0.216-0.169 0.52 0 0.736l2.763 3.522c0.118 0.15 0.293 0.229 0.47 0.229 0.129 0 0.259-0.042 0.368-0.128 0.259-0.203 0.305-0.579 0.101-0.838l-2.475-3.155 2.475-3.166c0.203-0.26 0.157-0.635-0.103-0.838z"></path>
<path fill="#444" d="M8.896 13.444l2.476-3.166c0.203-0.26 0.157-0.635-0.103-0.838s-0.635-0.158-0.838 0.103l-2.764 3.534c-0.169 0.216-0.169 0.52 0 0.736l2.764 3.522c0.118 0.15 0.293 0.229 0.47 0.229 0.129 0 0.259-0.042 0.368-0.128 0.26-0.203 0.305-0.579 0.101-0.838l-2.475-3.155z"></path>
<path fill="#444" d="M21.53 17.898l-2.764-3.522c-0.203-0.259-0.579-0.305-0.838-0.101s-0.305 0.579-0.101 0.838l2.475 3.154-2.476 3.167c-0.203 0.259-0.157 0.635 0.103 0.838 0.109 0.085 0.238 0.127 0.367 0.127 0.177 0 0.353-0.079 0.47-0.229l2.764-3.534c0.169-0.217 0.169-0.521-0-0.737z"></path>
<path fill="#444" d="M21.598 14.376c-0.203-0.259-0.578-0.305-0.838-0.101s-0.305 0.579-0.101 0.838l2.474 3.154-2.475 3.167c-0.203 0.26-0.157 0.635 0.103 0.838 0.109 0.085 0.238 0.127 0.367 0.127 0.177 0 0.353-0.079 0.47-0.229l2.763-3.534c0.169-0.216 0.169-0.52-0-0.736l-2.763-3.523z"></path>
<path fill="#444" d="M16 1c-8.271 0-15 6.729-15 15s6.729 15 15 15c8.271 0 15-6.729 15-15s-6.729-15-15-15zM16 29.806c-7.613 0-13.806-6.194-13.806-13.806s6.194-13.806 13.806-13.806c7.613 0 13.806 6.193 13.806 13.806s-6.193 13.806-13.806 13.806z"></path>
</svg>
