<?xml version="1.0" encoding="utf-8"?>
<!-- Generated by IcoMoon.io -->
<!DOCTYPE svg PUBLIC "-//W3C//DTD SVG 1.1//EN" "http://www.w3.org/Graphics/SVG/1.1/DTD/svg11.dtd">
<svg version="1.1" xmlns="http://www.w3.org/2000/svg" xmlns:xlink="http://www.w3.org/1999/xlink" width="32" height="32" viewBox="0 0 32 32">
<path fill="#444" d="M14.75 4.75c-7.582 0-13.75 6.168-13.75 13.75v1.875c0 3.791 3.084 6.875 6.875 6.875s6.875-3.084 6.875-6.875c0-3.791-3.084-6.875-6.875-6.875-2.186 0-4.132 1.029-5.392 2.623 1.114-5.759 6.188-10.123 12.267-10.123 0.345 0 0.625-0.28 0.625-0.625s-0.28-0.625-0.625-0.625zM7.875 14.75c3.101 0 5.625 2.523 5.625 5.625s-2.524 5.625-5.625 5.625c-3.101 0-5.625-2.523-5.625-5.625s2.524-5.625 5.625-5.625zM30.375 4.75c-7.582 0-13.75 6.168-13.75 13.75v1.875c0 3.791 3.084 6.875 6.875 6.875s6.875-3.084 6.875-6.875c0-3.791-3.084-6.875-6.875-6.875-2.186 0-4.132 1.029-5.392 2.623 1.114-5.759 6.188-10.123 12.267-10.123 0.346 0 0.625-0.28 0.625-0.625s-0.279-0.625-0.625-0.625zM23.5 14.75c3.102 0 5.625 2.523 5.625 5.625s-2.523 5.625-5.625 5.625c-3.102 0-5.625-2.523-5.625-5.625s2.523-5.625 5.625-5.625z"></path>
</svg>
