<?xml version="1.0" encoding="utf-8"?>
<!-- Generated by IcoMoon.io -->
<!DOCTYPE svg PUBLIC "-//W3C//DTD SVG 1.1//EN" "http://www.w3.org/Graphics/SVG/1.1/DTD/svg11.dtd">
<svg version="1.1" xmlns="http://www.w3.org/2000/svg" xmlns:xlink="http://www.w3.org/1999/xlink" width="32" height="32" viewBox="0 0 32 32">
<path fill="#444" d="M10.885 6.115c-5.45 0-9.885 4.435-9.885 9.885s4.435 9.885 9.885 9.885h10.23c5.45 0 9.885-4.435 9.885-9.885s-4.435-9.885-9.885-9.885h-10.23zM10.885 7.774h10.23c4.542 0 8.226 3.683 8.226 8.226s-3.683 8.226-8.226 8.226h-10.23c-4.542 0-8.226-3.683-8.226-8.226s3.683-8.226 8.226-8.226zM13.852 10.936l-0.978 5.185 1.164 0.152c0.184-0.289 0.435-0.525 0.757-0.706s0.682-0.272 1.081-0.272c0.643 0 1.162 0.205 1.56 0.613s0.596 0.966 0.596 1.673c0 0.744-0.207 1.34-0.62 1.79s-0.918 0.675-1.515 0.675c-0.496 0-0.919-0.159-1.271-0.479s-0.575-0.795-0.671-1.429l-1.302 0.11c0.083 0.849 0.414 1.531 0.995 2.045s1.33 0.771 2.248 0.771c1.12 0 2.004-0.409 2.651-1.226 0.532-0.666 0.799-1.456 0.799-2.369 0-0.959-0.303-1.744-0.909-2.354s-1.349-0.916-2.23-0.916c-0.666 0-1.302 0.211-1.908 0.634l0.544-2.713h4.028v-1.185h-5.020z"></path>
</svg>
