<?xml version="1.0" encoding="utf-8"?>
<!-- Generated by IcoMoon.io -->
<!DOCTYPE svg PUBLIC "-//W3C//DTD SVG 1.1//EN" "http://www.w3.org/Graphics/SVG/1.1/DTD/svg11.dtd">
<svg version="1.1" xmlns="http://www.w3.org/2000/svg" xmlns:xlink="http://www.w3.org/1999/xlink" width="32" height="32" viewBox="0 0 32 32">
<path fill="#444" d="M15.925 3.829c-0.902 0.003-1.823 0.104-2.735 0.318-0.006 0.001-0.011-0.001-0.017 0-5.778 1.374-10.106 6.871-9.73 12.95l-2.441-3.644c-0.099-0.151-0.267-0.249-0.458-0.249-0.301 0-0.545 0.244-0.545 0.545 0 0.11 0.033 0.213 0.089 0.299l3.813 5.676c0.099 0.147 0.264 0.242 0.452 0.242 0.165 0 0.313-0.074 0.412-0.19l4.391-5.256c0.090-0.096 0.145-0.226 0.145-0.369 0-0.3-0.243-0.542-0.542-0.542-0.177 0-0.333 0.084-0.432 0.215l-3.628 4.341c-1.001-5.991 3.102-11.619 8.729-12.95 4.12-0.975 8.247 0.483 10.866 3.441 0.101 0.118 0.25 0.193 0.417 0.193 0.302 0 0.546-0.245 0.546-0.546 0-0.145-0.057-0.278-0.15-0.376-2.157-2.436-5.247-3.933-8.56-4.085-0.206-0.009-0.413-0.013-0.621-0.013zM27.599 13.409c-0 0-0.001 0-0.002 0-0.035 0-0.070 0.003-0.104 0.010-0.12 0.034-0.222 0.107-0.293 0.204-0.015 0.001-0.061 0.066-0.091 0.138 0.097-0.156 0.094-0.156 0.091-0.156s-0.006 0-0.009 0l-4.39 5.254c-0.077 0.094-0.124 0.215-0.124 0.348 0 0.303 0.245 0.548 0.548 0.548 0.17 0 0.323-0.078 0.423-0.2l3.526-4.238c0.335 5.285-3.527 10.25-8.645 11.459-3.855 0.913-7.713-0.31-10.339-2.899-0.099-0.103-0.238-0.167-0.392-0.167-0.301 0-0.545 0.244-0.545 0.545 0 0.158 0.067 0.3 0.175 0.4 2.884 2.842 7.132 4.187 11.357 3.187 5.414-1.279 9.521-6.332 9.509-11.899l2.678 3.984c0.091 0.18 0.274 0.301 0.486 0.301 0.3 0 0.542-0.243 0.542-0.542 0-0.135-0.049-0.259-0.131-0.354l-3.812-5.678c-0.098-0.149-0.265-0.247-0.455-0.247-0.001 0-0.002 0-0.003 0z"></path>
</svg>
