<?xml version="1.0" encoding="utf-8"?>
<!-- Generated by IcoMoon.io -->
<!DOCTYPE svg PUBLIC "-//W3C//DTD SVG 1.1//EN" "http://www.w3.org/Graphics/SVG/1.1/DTD/svg11.dtd">
<svg version="1.1" xmlns="http://www.w3.org/2000/svg" xmlns:xlink="http://www.w3.org/1999/xlink" width="32" height="32" viewBox="0 0 32 32">
<path fill="#444" d="M16.002-0.013c-0.407 0-0.818 0.016-1.23 0.048-5.082 0.392-9.437 3.139-12.073 7.070v-6.801h-0.831v8.312h8.312v-0.831h-6.936c2.484-3.841 6.665-6.54 11.58-6.919 8.356-0.644 15.666 5.615 16.312 13.971l-0.026 0.003c0.032 0.407 0.027 0.819 0.026 1.221h0.831c0.001-0.424 0.007-0.87-0.026-1.299-0.647-8.393-7.658-14.782-15.938-14.774zM0.851 17.178l-0.831 0.052c0.033 0.429 0.090 0.854 0.155 1.272l0.831-0.13c-0.062-0.396-0.124-0.787-0.155-1.194zM30.953 18.398l-0.26 1.246v0.052l-0.312 1.039 0.805 0.234 0.312-1.091v-0.026l0.286-1.272-0.831-0.182zM1.552 20.684l-0.806 0.233 0.053 0.183 0.025 0.025 0.493 1.299v0.026h0.026l0.39 0.805 0.728-0.39-0.364-0.728-0.025-0.052-0.468-1.221v-0.025l-0.052-0.156zM29.473 22.917l-0.105 0.234h-0.025l-0.624 1.091-0.025 0.025-0.468 0.676 0.676 0.493 0.493-0.728 0.026-0.025 0.648-1.091v-0.026l0.13-0.285-0.727-0.364zM3.707 24.892l-0.675 0.493 0.468 0.623v0.026h0.025l0.883 1.013v0.026h0.026l0.233 0.233 0.571-0.598-0.233-0.233-0.831-0.961-0.026-0.026-0.441-0.597zM26.667 26.735l-0.337 0.363-0.026 0.026-0.909 0.779-0.025 0.025-0.52 0.364 0.493 0.649 0.52-0.364 0.025-0.025 0.987-0.831v-0.026h0.026l0.363-0.363-0.598-0.598zM7.032 28.242l-0.468 0.701 1.064 0.701 0.026 0.025h0.026l1.013 0.571 0.39-0.727-0.987-0.546-0.026-0.025-1.038-0.701zM22.823 29.515l-0.649 0.338h-0.025l-1.169 0.467h-0.026l-0.312 0.105 0.233 0.805 0.364-0.104v-0.026h0.025l1.221-0.468v-0.025h0.026l0.701-0.338-0.39-0.753zM11.291 30.424l-0.285 0.779 0.468 0.155h0.025l1.351 0.338h0.026l0.571 0.104 0.13-0.831-0.571-0.104v0.025l-1.299-0.337-0.416-0.13zM18.33 30.969l-1.169 0.156h-0.025l-1.195 0.025 0.026 0.831 1.246-0.025 1.221-0.156-0.104-0.831z"></path>
</svg>
