<?xml version="1.0" encoding="utf-8"?>
<!-- Generated by IcoMoon.io -->
<!DOCTYPE svg PUBLIC "-//W3C//DTD SVG 1.1//EN" "http://www.w3.org/Graphics/SVG/1.1/DTD/svg11.dtd">
<svg version="1.1" xmlns="http://www.w3.org/2000/svg" xmlns:xlink="http://www.w3.org/1999/xlink" width="32" height="32" viewBox="0 0 32 32">
<path fill="#444" d="M30.969 12.68c-0.082-0.261-0.317-0.443-0.589-0.46l-10.067-0.617-3.701-9.074c-0.101-0.248-0.343-0.411-0.611-0.411v0c-0.268 0-0.51 0.162-0.611 0.411l-3.71 9.077-10.059 0.617c-0.273 0.017-0.506 0.199-0.589 0.46s0.003 0.544 0.217 0.715l7.756 6.218-2.505 9.433c-0.069 0.261 0.027 0.538 0.244 0.7s0.51 0.174 0.74 0.033l8.52-5.238 8.516 5.239c0.106 0.066 0.226 0.098 0.346 0.098 0.139 0 0.277-0.044 0.394-0.131 0.217-0.161 0.314-0.439 0.245-0.7l-2.503-9.445 7.751-6.212c0.213-0.171 0.299-0.455 0.217-0.716z"></path>
</svg>
