<?xml version="1.0" encoding="utf-8"?>
<!-- Generated by IcoMoon.io -->
<!DOCTYPE svg PUBLIC "-//W3C//DTD SVG 1.1//EN" "http://www.w3.org/Graphics/SVG/1.1/DTD/svg11.dtd">
<svg version="1.1" xmlns="http://www.w3.org/2000/svg" xmlns:xlink="http://www.w3.org/1999/xlink" width="32" height="32" viewBox="0 0 32 32">
<path fill="#444" d="M24.865 29.881c-0.12 0-0.24-0.033-0.346-0.098l-8.516-5.239-8.52 5.238c-0.231 0.142-0.523 0.128-0.74-0.033s-0.313-0.438-0.244-0.699l2.505-9.433-7.756-6.218c-0.213-0.171-0.299-0.455-0.217-0.716s0.317-0.443 0.589-0.459l10.059-0.617 3.71-9.077c0.101-0.248 0.343-0.411 0.611-0.411v0c0.268 0 0.51 0.163 0.611 0.411l3.701 9.074 10.067 0.617c0.273 0.016 0.506 0.199 0.589 0.459s-0.003 0.544-0.217 0.716l-7.751 6.212 2.503 9.445c0.069 0.261-0.027 0.538-0.245 0.7-0.117 0.087-0.255 0.131-0.394 0.131zM16.003 23.108c0.12 0 0.24 0.033 0.346 0.098l7.454 4.585-2.189-8.262c-0.067-0.253 0.022-0.521 0.226-0.685l6.752-5.41-8.773-0.537c-0.253-0.015-0.475-0.175-0.571-0.41l-3.247-7.96-3.255 7.964c-0.096 0.235-0.318 0.394-0.571 0.409l-8.765 0.537 6.757 5.418c0.204 0.164 0.292 0.432 0.225 0.685l-2.191 8.25 7.457-4.584c0.106-0.066 0.226-0.098 0.346-0.098z"></path>
</svg>
