<?xml version="1.0" encoding="utf-8"?>
<!-- Generated by IcoMoon.io -->
<!DOCTYPE svg PUBLIC "-//W3C//DTD SVG 1.1//EN" "http://www.w3.org/Graphics/SVG/1.1/DTD/svg11.dtd">
<svg version="1.1" xmlns="http://www.w3.org/2000/svg" xmlns:xlink="http://www.w3.org/1999/xlink" width="32" height="32" viewBox="0 0 32 32">
<path fill="#444" d="M16 1c-8.271 0-15 6.729-15 15s6.729 15 15 15c8.271 0 15-6.729 15-15s-6.729-15-15-15zM16 29.806c-7.613 0-13.806-6.194-13.806-13.806s6.193-13.806 13.806-13.806c7.613 0 13.806 6.193 13.806 13.806s-6.194 13.806-13.806 13.806z"></path>
<path fill="#444" d="M11.276 11.041h11.67c0.33 0 0.597-0.267 0.597-0.597s-0.267-0.597-0.597-0.597h-11.67c-0.33 0-0.597 0.267-0.597 0.597s0.267 0.597 0.597 0.597z"></path>
<path fill="#444" d="M23.502 18.181h-15.004c-0.33 0-0.597 0.267-0.597 0.597s0.267 0.597 0.597 0.597h15.004c0.33 0 0.597-0.267 0.597-0.597s-0.267-0.597-0.597-0.597z"></path>
<path fill="#444" d="M20.167 20.96h-11.67c-0.33 0-0.597 0.267-0.597 0.597s0.267 0.597 0.597 0.597h11.67c0.33 0 0.597-0.267 0.597-0.597s-0.267-0.597-0.597-0.597z"></path>
<path fill="#444" d="M23.502 15.403h-15.004c-0.33 0-0.597 0.267-0.597 0.597s0.267 0.597 0.597 0.597h15.004c0.33 0 0.597-0.267 0.597-0.597s-0.267-0.597-0.597-0.597z"></path>
<path fill="#444" d="M23.502 12.625h-15.004c-0.33 0-0.597 0.267-0.597 0.597s0.267 0.597 0.597 0.597h15.004c0.33 0 0.597-0.267 0.597-0.597s-0.267-0.597-0.597-0.597z"></path>
</svg>
