<?xml version="1.0" encoding="utf-8"?>
<!-- Generated by IcoMoon.io -->
<!DOCTYPE svg PUBLIC "-//W3C//DTD SVG 1.1//EN" "http://www.w3.org/Graphics/SVG/1.1/DTD/svg11.dtd">
<svg version="1.1" xmlns="http://www.w3.org/2000/svg" xmlns:xlink="http://www.w3.org/1999/xlink" width="32" height="32" viewBox="0 0 32 32">
<path fill="#444" d="M27.070 5.193c-0.31 0.010-0.583 0.158-0.76 0.385l-15.38 18.739-5.244-5.244c-0.186-0.229-0.467-0.374-0.783-0.374-0.555 0-1.005 0.45-1.005 1.005 0 0.315 0.145 0.597 0.372 0.781l6.031 6.031c0.182 0.181 0.432 0.293 0.709 0.293 0.307 0 0.581-0.137 0.766-0.354l16.079-19.596c0.153-0.175 0.247-0.407 0.247-0.66 0-0.555-0.45-1.005-1.005-1.005-0.009 0-0.019 0-0.028 0z"></path>
</svg>
