<?xml version="1.0" encoding="utf-8"?>
<!-- Generated by IcoMoon.io -->
<!DOCTYPE svg PUBLIC "-//W3C//DTD SVG 1.1//EN" "http://www.w3.org/Graphics/SVG/1.1/DTD/svg11.dtd">
<svg version="1.1" xmlns="http://www.w3.org/2000/svg" xmlns:xlink="http://www.w3.org/1999/xlink" width="32" height="32" viewBox="0 0 32 32">
<path fill="#444" d="M2.466 1.625c-0.474 0.046-0.841 0.442-0.841 0.923 0 0.002 0 0.003 0 0.005v26.894c0 0 0 0 0 0 0 0.512 0.415 0.927 0.927 0.927 0 0 0 0 0 0h26.895c0 0 0 0 0 0 0.512 0 0.927-0.415 0.927-0.927 0-0 0-0 0-0v-26.895c0-0 0-0 0-0 0-0.512-0.415-0.927-0.927-0.927-0 0-0 0-0 0h-26.895c-0.013-0.001-0.028-0.001-0.043-0.001s-0.030 0-0.046 0.001zM3.479 3.479h25.041v25.041h-25.041v-25.041z"></path>
</svg>
