<?xml version="1.0" encoding="utf-8"?>
<!-- Generated by IcoMoon.io -->
<!DOCTYPE svg PUBLIC "-//W3C//DTD SVG 1.1//EN" "http://www.w3.org/Graphics/SVG/1.1/DTD/svg11.dtd">
<svg version="1.1" xmlns="http://www.w3.org/2000/svg" xmlns:xlink="http://www.w3.org/1999/xlink" width="32" height="32" viewBox="0 0 32 32">
<path fill="#444" d="M29.835 13.815h-14.692v-3.427c0-3.855-3.127-6.939-6.939-6.939-3.855 0-6.939 3.127-6.939 6.939v3.427h1.071v-3.427c0-3.255 2.656-5.868 5.868-5.868 3.255 0 5.868 2.656 5.868 5.868v3.427h-1.885c-0.3 0-0.514 0.257-0.514 0.514v13.75c0 0.3 0.257 0.514 0.514 0.514h17.648c0.3 0 0.514-0.257 0.514-0.514v-13.75c0-0.3-0.214-0.514-0.514-0.514zM29.279 27.565h-16.534v-12.679h16.577v12.679z"></path>
<path fill="#444" d="M20.498 21.054v1.542c0 0.3 0.257 0.514 0.514 0.514s0.514-0.257 0.514-0.514v-1.542c0.3-0.171 0.514-0.514 0.514-0.9 0-0.6-0.471-1.071-1.071-1.071s-1.071 0.471-1.071 1.071c0.043 0.386 0.257 0.728 0.6 0.9z"></path>
</svg>
