<?xml version="1.0" encoding="utf-8"?>
<!-- Generated by IcoMoon.io -->
<!DOCTYPE svg PUBLIC "-//W3C//DTD SVG 1.1//EN" "http://www.w3.org/Graphics/SVG/1.1/DTD/svg11.dtd">
<svg version="1.1" xmlns="http://www.w3.org/2000/svg" xmlns:xlink="http://www.w3.org/1999/xlink" width="32" height="32" viewBox="0 0 32 32">
<path fill="#444" d="M30.5 4.488l-28.998 0.016c-0.045 0.003-0.086 0.012-0.125 0.025-0.017-0-0.061 0.014-0.101 0.035 0.068-0.028 0.065-0.028 0.062-0.028s-0.006 0-0.008 0c-0.057 0.027-0.106 0.061-0.147 0.103 0.059-0.061 0.010-0.026-0.031 0.016 0.042-0.049-0.019 0.005-0.065 0.070 0.034-0.047-0.008 0.013-0.036 0.079 0.039-0.095-0.003-0.036-0.031 0.031 0.036-0.086-0.006-0.016-0.030 0.063 0.059-0.126 0.059-0.123 0.059-0.121s0 0.005 0 0.008c-0.028 0.049-0.047 0.107-0.056 0.168 0.040-0.135 0.040-0.132 0.040-0.13s0 0.005 0 0.008c-0.028 0.049-0.047 0.107-0.056 0.168 0.040-0.135 0.040-0.132 0.040-0.13s0 0.005 0 0.008c-0.010 0.037-0.016 0.080-0.016 0.124 0 0 0 0.001 0 0.001v4c-0 0.007-0.001 0.015-0.001 0.023s0 0.016 0.001 0.025l-0 13.889v4.063c0.009 0.049 0.024 0.092 0.044 0.133-0.028-0.065-0.029-0.060-0.029-0.054s0 0.011 0 0.016c0.009 0.048 0.024 0.091 0.044 0.132-0.002-0.013 0.033 0.036 0.075 0.078-0.061-0.059-0.026-0.010 0.016 0.031-0.088-0.114-0.088-0.111-0.088-0.109s0 0.006 0 0.008c0.047 0.049 0.104 0.088 0.167 0.115-0.125-0.042-0.090 0.007-0.048 0.048-0.051-0.054-0.003-0.002 0.054 0.038-0.062-0.055-0.003-0.012 0.064 0.016-0.141-0.092-0.138-0.092-0.136-0.092s0.006-0 0.008-0c0.026 0.057 0.061 0.106 0.103 0.148-0.041-0.067 0.016-0.028 0.079-0.001-0.102-0.072-0.044-0.052 0.017-0.044-0.135-0.040-0.132-0.040-0.13-0.040s0.006-0 0.008-0c0.026 0.057 0.061 0.106 0.103 0.148-0.085-0.116-0.083-0.116-0.080-0.116s0.006-0 0.008-0c0.049 0.027 0.107 0.047 0.168 0.056-0.135-0.040-0.132-0.040-0.13-0.040s0.006-0 0.008-0c0.049 0.027 0.107 0.047 0.168 0.056-0.135-0.040-0.132-0.040-0.13-0.040s0.006-0 0.008-0c0.043 0.018 0.094 0.029 0.147 0.033-0.099-0.017-0.096-0.017-0.093-0.017s0.006-0 0.008-0c0.004 0 0.010 0 0.015 0s0.011-0 0.016-0c0.002 0 0.004 0 0.007 0s0.006-0 0.008-0c0.002 0 0.005 0 0.007 0s0.006-0 0.008-0c0.002 0 0.005 0 0.007 0s0.006-0 0.008-0h28.982c0.007 0 0.015 0.001 0.023 0.001s0.016-0 0.025-0.001c0.052-0.015 0.098-0.037 0.14-0.064-0.087 0.049-0.079 0.049-0.071 0.049s0.016-0 0.025-0.001c0.061-0.037 0.113-0.085 0.153-0.142-0.036 0.083 0.025 0.043 0.075-0.008-0.035 0.023 0.007-0.036 0.035-0.103-0.030 0.106 0.022 0.058 0.062 0.002-0.055 0.062-0.012 0.003 0.016-0.064-0.051 0.089-0.020 0.025-0.004-0.045-0.009 0.069 0.020-0.019 0.023-0.115-0.001 0.018-0.001 0.012-0.001 0.007s-0-0.011-0-0.016l0-3.999c0-0.007 0.001-0.015 0.001-0.023s-0-0.016-0.001-0.025l0-13.889c0.001-0.009 0.001-0.020 0.001-0.031s-0-0.022-0.001-0.033l0-3.999v-0.016c0-0.007 0.001-0.015 0.001-0.023s-0-0.016-0.001-0.025c-0.026-0.056-0.061-0.105-0.103-0.147 0.088 0.114 0.088 0.111 0.088 0.109s-0-0.005-0-0.008c-0.022-0.089-0.065-0.165-0.124-0.227 0.046 0.053 0.046 0.051 0.046 0.048s-0-0.005-0-0.008c-0.049-0.053-0.108-0.095-0.175-0.123 0.092 0.031 0.027-0.018-0.048-0.049 0.078 0.021 0.016-0.024-0.054-0.054 0.087 0.058 0.029 0.038-0.033 0.029 0.135 0.040 0.132 0.040 0.13 0.040s-0.006 0-0.008 0c-0.049-0.027-0.107-0.047-0.168-0.056 0.087 0.019 0.029 0.005-0.032 0.003 0.023-0.005-0.021-0.012-0.066-0.013zM2.002 5.504h27.998v3.5c-0 0.007-0.001 0.015-0.001 0.023s0 0.016 0.001 0.025l-0 13.889v3.563h-27.982l-0.016-3.5c0-0.007 0.001-0.015 0.001-0.023s-0-0.016-0.001-0.025l0-13.889c0.001-0.009 0.001-0.020 0.001-0.031s-0-0.022-0.001-0.033l0-3.499zM12.461 12.565c-0.026 0.004-0.048 0.008-0.070 0.015-0.192 0.011-0.39 0.225-0.39 0.484 0 0.001 0 0.002 0 0.002v6.312c0.002 0.275 0.225 0.496 0.5 0.496 0.074 0 0.143-0.016 0.206-0.044l7.278-3.155c0.172-0.082 0.289-0.254 0.289-0.453s-0.117-0.372-0.286-0.452l-7.284-3.158c-0.063-0.031-0.137-0.049-0.215-0.049-0.010 0-0.020 0-0.029 0.001zM13.001 13.832l5.531 2.391-5.531 2.391v-4.781z"></path>
</svg>
