<?xml version="1.0" encoding="utf-8"?>
<!-- Generated by IcoMoon.io -->
<!DOCTYPE svg PUBLIC "-//W3C//DTD SVG 1.1//EN" "http://www.w3.org/Graphics/SVG/1.1/DTD/svg11.dtd">
<svg version="1.1" xmlns="http://www.w3.org/2000/svg" xmlns:xlink="http://www.w3.org/1999/xlink" width="32" height="32" viewBox="0 0 32 32">
<path fill="#444" d="M16 1c-8.271 0-15 6.729-15 15s6.729 15 15 15c8.271 0 15-6.729 15-15s-6.729-15-15-15zM16 2.194c7.612 0 13.806 6.193 13.806 13.806s-6.194 13.807-13.806 13.807c-7.613 0-13.806-6.194-13.806-13.807s6.193-13.806 13.806-13.806zM12.554 11.063c-0.1 0.005-0.198 0.035-0.285 0.090-0.175 0.109-0.281 0.3-0.281 0.507v8.68c0 0.206 0.106 0.398 0.281 0.507 0.096 0.060 0.206 0.091 0.315 0.091 0.090 0 0.179-0.020 0.263-0.062l8.846-4.341c0.204-0.1 0.334-0.309 0.334-0.536s-0.13-0.435-0.334-0.535l-8.846-4.34c-0.092-0.046-0.193-0.066-0.293-0.061zM13.181 12.618l6.895 3.382-6.895 3.383v-6.765z"></path>
</svg>
