<?xml version="1.0" encoding="utf-8"?>
<!-- Generated by IcoMoon.io -->
<!DOCTYPE svg PUBLIC "-//W3C//DTD SVG 1.1//EN" "http://www.w3.org/Graphics/SVG/1.1/DTD/svg11.dtd">
<svg version="1.1" xmlns="http://www.w3.org/2000/svg" xmlns:xlink="http://www.w3.org/1999/xlink" width="32" height="32" viewBox="0 0 32 32">
<path fill="#444" d="M24.319 16.761c-0.898-0.969-2.094-1.61-3.587-1.923v-0.13c1.039-0.433 1.853-1.109 2.442-2.028s0.884-1.97 0.884-3.149c0-1.017-0.213-1.916-0.641-2.694s-1.074-1.402-1.94-1.867c-0.801-0.433-1.658-0.717-2.573-0.852s-2.259-0.202-4.034-0.202h-8.538v24.17h9.674c1.677 0 3.061-0.151 4.148-0.454s2.085-0.811 2.994-1.526c0.768-0.594 1.38-1.347 1.834-2.256s0.682-1.964 0.682-3.165c0-1.646-0.449-2.953-1.347-3.923zM17.615 12.143c-0.184 0.401-0.52 0.714-1.006 0.942-0.444 0.206-0.874 0.319-1.29 0.341s-1.145 0.032-2.183 0.032h-0.764v-5.112h0.422c1.082 0 1.896 0.009 2.443 0.024s1.019 0.111 1.42 0.284c0.422 0.184 0.733 0.482 0.933 0.893s0.3 0.811 0.3 1.201c0.001 0.531-0.091 0.995-0.275 1.396zM19.035 22.135c-0.255 0.46-0.658 0.809-1.209 1.047-0.627 0.27-1.244 0.416-1.849 0.439s-1.699 0.033-3.279 0.033h-0.325v-6.055h1.12c1.082 0 1.945 0.009 2.59 0.024 0.643 0.017 1.149 0.095 1.517 0.235 0.606 0.217 1.061 0.537 1.363 0.957 0.304 0.422 0.455 1.006 0.455 1.754 0 0.584-0.127 1.106-0.382 1.566z"></path>
</svg>
