<?xml version="1.0" encoding="utf-8"?>
<!-- Generated by IcoMoon.io -->
<!DOCTYPE svg PUBLIC "-//W3C//DTD SVG 1.1//EN" "http://www.w3.org/Graphics/SVG/1.1/DTD/svg11.dtd">
<svg version="1.1" xmlns="http://www.w3.org/2000/svg" xmlns:xlink="http://www.w3.org/1999/xlink" width="32" height="32" viewBox="0 0 32 32">
<path fill="#444" d="M13.021 3.49c-0.005-0-0.010-0-0.016-0-0.035 0-0.070 0.004-0.103 0.011-0.191 0.037-0.344 0.183-0.391 0.371l-3.887 12.629h-7.125c-0.002-0-0.005-0-0.007-0-0.276 0-0.5 0.224-0.5 0.5s0.224 0.5 0.5 0.5c0.002 0 0.005-0 0.007-0h7.5c0.001 0 0.003 0 0.005 0 0.226 0 0.417-0.15 0.479-0.356l3.345-10.847 3.172 21.781c0.040 0.24 0.246 0.42 0.494 0.42 0.242 0 0.444-0.172 0.49-0.401l3.204-16.003 2.359 5.109c0.079 0.176 0.253 0.296 0.454 0.297h7.499c0.002 0 0.005 0 0.007 0 0.276 0 0.5-0.224 0.5-0.5s-0.224-0.5-0.5-0.5c-0.003 0-0.005 0-0.007 0h-7.187l-2.859-6.203c-0.083-0.168-0.253-0.281-0.45-0.281-0.237 0-0.436 0.165-0.487 0.387l-2.938 14.66-3.078-21.141c-0.034-0.24-0.234-0.424-0.479-0.432z"></path>
</svg>
